<?xml version="1.0" encoding="UTF-8"?>
<!-- Generator: visioncortex VTracer 0.6.12 -->
<svg version="1.1" xmlns="http://www.w3.org/2000/svg" width="100" height="160">
<path d="M0 0 C5.388503010784149 1.2829769073295605 8.643687217526598 3.703482333836977 12 8 C12.937425407096534 10.812276221289597 13.13470843853441 12.587468439677611 13.125 15.5 C13.1262890625 15.88671875 13.1262890625 15.88671875 13.1328125 17.84375 C13 19.999999999999996 13 19.999999999999996 12 23 C17.61 23.33 23.22 23.66 29 24 C28.835 24.494999999999997 28.835 24.494999999999997 28 27 C24.79037511429985 28.06987496190005 22.379764094956407 27.884397990709036 19.045654296875 27.681640625 C9.462052988639968 27.197449980169406 3.8012457170816276 28.82494918394383 -4.08203125 34.25 C-7.113862125554103 36.06828679015828 -8.546767068002698 36.40851554093868 -12 36 C-12.061875 36.928125 -12.123750000000001 37.85625 -12.1875 38.8125 C-13 42 -13 42 -15.4375 43.625 C-15.8603125 43.851875 -15.8603125 43.851875 -18 45 C-20.411355288269778 48.73397156678564 -20.13350187639353 51.5470103738449 -19.55078125 55.80859375 C-18.767131992423987 58.92651739184498 -17.283845493869343 60.78536194533882 -15 63 C-11.42829490081375 64.78585254959313 -7.775059267910173 63.943764816977534 -4 63 C1.9529202037060713 60.103984765764615 6.500798422877217 55.72505596992289 11.046875 51 C14.18609086220944 47.78544295709753 17.580093202669197 44.90874635075467 21 42 C21.434414062499997 41.6094140625 21.434414062499997 41.6094140625 23.6328125 39.6328125 C29.220926457248652 34.76072428657709 33.50432332010335 31.508880802121425 41 31 C41.35642578125001 30.960683593749998 41.35642578125001 30.960683593749998 43.16015625 30.76171875 C46.63587346438155 30.53433538083485 48.80931568912838 30.896367222352385 51.875 32.5625 C55.19238454755731 36.36773521631573 55.773878220174836 40.153338798094445 56.375 45.0625 C55.879568581410865 48.94337944561484 54.49440421529626 51.020572742840585 52 54 C49.75 54.875 49.75 54.875 48 55 C48.32484375 54.291015625 48.6496875 53.58203125 48.984375 52.8515625 C50.060061445963115 49.83136594018048 50.26758832977508 47.5672818541767 50.25 44.375 C50.25515625 43.433984375 50.2603125 42.49296875 50.265625 41.5234375 C50 39.00000000000001 50 39.00000000000001 48 36 C43.55837614108685 34.780730705396394 40.148665595874405 34.66930539348176 35.94921875 36.7265625 C29.478270332782017 40.95407589481575 24.110749993021017 46.83675703283817 18.70703125 52.31640625 C1.5692605639681574 69.2188757366813 1.5692605639681574 69.2188757366813 -9.4375 69.375 C-15.419349764124519 69.26228681467329 -18.476137144887634 67.43372489600121 -22.75 63.3125 C-25.385236579731263 58.43731232749717 -26.560955738431783 53.280490617017335 -25.375 47.8125 C-24.22206226658792 44.02752678307482 -22.363807072437407 41.15174276324988 -20 38 C-21.179757331843103 35.44385911433994 -22.462160129333615 33.36113158592118 -24.125 31.0625 C-26.044639366312055 27.92708903502364 -26.420518099324614 26.574403844259212 -26 23 C-25.505000000000003 23.33 -25.505000000000003 23.33 -23 25 C-23 25.66 -23 26.32 -23 27 C-22.34 27 -21.68 27 -21 27 C-21 27.66 -21 28.32 -21 29 C-15.769129148294333 31.280123191769135 -11.45667942734607 31.350008924066586 -6 30 C-3.4630465316535393 28.85233057384327 -1.3364481371553083 27.54106153727265 1 26 C-1.4130411058330168 24.05399910819918 -3.835393467110741 22.12548104120081 -6.30078125 20.24609375 C-7.109023437499999 19.6286328125 -7.917265624999999 19.011171875 -8.75 18.375 C-9.528593749999999 17.784609375 -10.307187499999998 17.19421875 -11.109375 16.5859375 C-13 15 -13 15 -14 13 C-8.509944331150056 13.288950298360524 -4.931227402496994 15.689746288406397 -0.46484375 18.625 C2.069037887109914 20.038512418799826 4.144221742393896 20.59275889374601 7 21 C8.602823291174495 17.794353417651006 8.488290295432066 14.478232241433913 8 11 C6.188098539134671 8.088015509323577 4.517611433877974 6.373830480022983 1.75 4.375 C1.1724999999999994 3.9212500000000006 0.5949999999999989 3.4674999999999994 0 3 C0 2.01 0 1.02 0 0 Z " fill="#000000" transform="translate(35,1)"/>
<path d="M0 0 C4 3 4 3 4.609375 6.57421875 C4.67557291046063 7.944515496535104 4.721825098122487 9.315894549508414 4.75 10.6875 C4.779648437500001 11.389394531249991 4.809296875000001 12.09128906250001 4.83984375 12.814453125 C4.910370326209986 14.542354242144711 4.957470681443304 16.271183200670208 5 18 C3.6799999999999997 17.670000000000016 2.3599999999999994 17.340000000000003 1 17 C0.6700000000000017 11.389999999999986 0.3400000000000034 5.780000000000001 0 0 Z " fill="#000000" transform="translate(53,128)"/>
<path d="M0 0 C0.6599999999999966 0 1.3200000000000003 0 2 0 C2.2887500000000003 0.7837499999999977 2.5775000000000006 1.5674999999999955 2.875 2.375 C4 5 4 5 6 7 C5.009999999999998 6.835000000000008 5.009999999999998 6.835000000000008 0 6 C0 4.02000000000001 0 2.039999999999992 0 0 Z " fill="#000000" transform="translate(43,140)"/>
</svg>
