<?xml version="1.0" encoding="UTF-8"?>
<!-- Generator: visioncortex VTracer 0.6.12 -->
<svg version="1.1" xmlns="http://www.w3.org/2000/svg" width="100" height="270">
<path d="M0 0 C3.1326377791730664 1.0442125930576864 3.9038578851735934 1.8118958622961614 5.4375 4.8125 C6 8 6 8 5.125 10.875 C2.6691061287920164 13.330893871207984 2.1344792959822527 13.306599503914775 -1.1875 13.3125 C-1.8165625000000034 13.260937499999997 -1.8165625000000034 13.260937499999997 -5 13 C-5.659999999999997 11.68 -6.32 10.36 -7 9 C-6.535937500000003 9.0928125 -6.535937500000003 9.0928125 -4.1875 9.5625 C-1 10 -1 10 2 9 C1.125 2.25 1.125 2.25 0 0 Z " fill="#000000" transform="translate(61,46)"/>
<path d="M0 0 C5.002387822823518 0.22738126467379516 8.133699237514861 1.8901493866967343 12 5 C14.287595726597054 7.829394714475313 15.821961870367026 9.8353339019843 16.375 13.453125 C16 16 16 16 14.1015625 18.01953125 C13.284296874999999 18.611210937500005 12.467031250000002 19.202890624999995 11.625 19.8125 C10.812890625000001 20.4170703125 10.00078125 21.021640625000003 9.1640625 21.64453125 C7 23 7 23 5 23 C4.71125 23.721874999999997 4.422499999999999 24.443749999999994 4.125 25.1875 C3.424998289547794 26.93750427613051 2.681862402902251 28.67162381609525 1.875 30.375 C0.3807233584170664 34.8578299247488 0.36150350654290087 38.53145806504867 2.25 42.875 C4.249266387687118 45.30268061362007 4.9695557902830245 45.564687572084864 8 46 C18.68022236557266 43.103668511031145 25.812218008454238 35.34879571334366 33.1875 27.5 C41.20643797391803 19.19728478640849 51.065401290186315 11.005620951954128 63.25 10.75 C68.35942962851476 10.832945286177193 72.713635212206 11.778790685433279 76.5078125 15.46484375 C80.43735984231189 20.056800501444457 81.2941969316344 22.81368856542494 81.21875 28.6796875 C80.81433885873426 32.96933424842594 79.12847653721278 35.87152346278722 76.125 38.875 C73.57853520442087 40.22312842118896 71.84172381685613 40.23681031807135 69 40 C70.375 38.5 70.375 38.5 72 37 C72.66 37 73.32 37 74 37 C75.7446217930211 31.766134620936725 76.53504397453823 27.52878773689497 76 22 C74.20636089118355 19.189965396187546 72.98119064653005 17.490595323265026 70 16 C61.08922826142434 14.738439126617422 54.4368699589981 17.141529081227603 47 22 C45.01452491935788 23.682856202179934 43.26116558672479 25.412122956408297 41.515625 27.33984375 C40.05748978114411 28.937027945911737 38.5569517297492 30.27009443992425 36.875 31.625 C33.51057093249904 34.404310968805135 30.4224816367444 37.36606839022603 27.5546875 40.66015625 C21.942306922365717 46.828352295467624 14.621288157284063 51.77638928271206 6.125 52.1875 C1.5223082430331587 50.4384771323526 -1.9042611833567005 48.24776558619635 -4.140625 43.66015625 C-5.804606069622066 38.50937848448805 -6.064326277678472 32.92431394740784 -4.1953125 27.7890625 C-1.8155945916081642 23.636865046047348 1.2016351414005442 20.906528877065696 4.875 17.875 C7.23828125 15.8984375 7.23828125 15.8984375 9 14 C9.0625 10.5 9.0625 10.5 8 8 C7.092500000000001 7.752499999999998 6.185000000000002 7.5049999999999955 5.25 7.25 C1.8964851114484844 5.96018658132634 0.32291763880025925 4.6802895832310725 -2 2 C-1.3399999999999999 1.3400000000000034 -0.6799999999999997 0.6800000000000068 0 0 Z " fill="#000000" transform="translate(15,64)"/>
<path d="M0 0 C0.990000000000002 0 1.9799999999999969 0 3 0 C3.649640231265373 1.8945322093181005 4.29455114982391 3.7906864882705236 4.9375 5.6875 C5.297148437499999 6.7432421874999875 5.656796874999998 7.798984375000003 6.02734375 8.88671875 C7.693110647181626 14.218510786360469 7.693110647181626 14.218510786360469 8 17 C7.340000000000003 17.659999999999997 6.68 18.319999999999993 6 19 C4.993944073800016 16.39802797658396 3.994974748887003 13.79370638053058 3 11.1875 C2.856914062500003 10.818505859374994 2.856914062500003 10.818505859374994 2.1328125 8.951171875 C1.8621093750000028 8.238964843750011 1.5914062499999986 7.526757812499994 1.3125 6.79296875 C1.0611328124999986 6.13836669921875 0.8097656249999972 5.4837646484375 0.55078125 4.809326171875 C0 3 0 3 0 0 Z " fill="#000000" transform="translate(35,175)"/>
<path d="M0 0 C1.5 1.25 1.5 1.25 3 3 C3 4.319999999999993 3 5.639999999999986 3 7 C2.010000000000005 6.6699999999999875 1.019999999999996 6.340000000000003 0 6 C0 4.02000000000001 0 2.039999999999992 0 0 Z " fill="#000000" transform="translate(67,176)"/>
<path d="M0 0 C0.3299999999999983 0 0.6599999999999966 0 1 0 C1.0605859375000009 0.7592578125000102 1.1211718750000017 1.518515624999992 1.18359375 2.30078125 C1.2673828125000028 3.294648437500001 1.3511718749999986 4.288515625000002 1.4375 5.3125 C1.4781054687500017 5.805566406249994 1.4781054687500017 5.805566406249994 1.68359375 8.30078125 C2 11 2 11 3 14 C3.990000000000002 14.164999999999992 3.990000000000002 14.164999999999992 9 15 C9 15.330000000000013 9 15.659999999999997 9 16 C3.6049046321525893 16.490463215258842 3.6049046321525893 16.490463215258842 0.6875 14.125 C-2.1011555161665143 10.613359720382903 -2.267839743290274 8.463995721504574 -2 4 C-1 1.625 -1 1.625 0 0 Z " fill="#000000" transform="translate(56,178)"/>
<path d="M0 0 C0.990000000000002 0 1.9799999999999969 0 3 0 C2.6700000000000017 1.3199999999999932 2.3400000000000034 2.6399999999999864 2 4 C1.3400000000000034 3.6699999999999875 0.6799999999999997 3.3400000000000034 0 3 C0 2.009999999999991 0 1.0200000000000102 0 0 Z " fill="#000000" transform="translate(33,200)"/>
<path d="M0 0 C0.6599999999999966 0.3300000000000125 1.3200000000000003 0.6599999999999966 2 1 C1.6700000000000017 1.990000000000009 1.3400000000000034 2.9799999999999898 1 4 C0.3400000000000034 3.6699999999999875 -0.3200000000000003 3.3400000000000034 -1 3 C-0.6700000000000017 2.009999999999991 -0.3400000000000034 1.0200000000000102 0 0 Z " fill="#000000" transform="translate(62,223)"/>
<path d="M0 0 C1.6499999999999986 0 3.299999999999997 0 5 0 C5.64894236656599 2.0615238900677753 6.294026397237111 4.12426257619444 6.9375 6.1875 C7.117324218749999 6.761777343749998 7.117324218749999 6.761777343749998 8.02734375 9.66796875 C8.837560357767423 12.443530060946216 9.491343071669512 15.156875484805369 10 18 C9.340000000000003 18.329999999999984 8.68 18.659999999999997 8 19 C7.590078124999998 17.96359375 7.180156249999996 16.927187500000002 6.7578125 15.859375 C6.213634098572015 14.489546610198516 5.669358132797427 13.11975697601585 5.125 11.75 C4.990292968749998 11.409042968749986 4.990292968749998 11.409042968749986 4.30859375 9.68359375 C2.9954778000387208 6.384790265950926 1.6659828635804246 3.1378706362582705 0 0 Z " fill="#000000" transform="translate(37,233)"/>
<path d="M0 0 C0.990000000000002 0 1.9799999999999969 0 3 0 C2.6700000000000017 0.9900000000000091 2.3400000000000034 1.9799999999999898 2 3 C1.3400000000000034 2.009999999999991 0.6799999999999997 1.0200000000000102 0 0 Z " fill="#000000" transform="translate(51,233)"/>
<path d="M0 0 C-0.3299999999999983 6.27000000000001 -0.6599999999999966 12.539999999999992 -1 19 C-1.6599999999999966 19 -2.3200000000000003 19 -3 19 C-3.0489843750000034 17.796015624999995 -3.0979687499999997 16.59203124999999 -3.1484375 15.3515625 C-3.223463427532522 13.776018021817094 -3.2990113341470675 12.200498338684184 -3.375 10.625 C-3.3904687499999966 10.227968750000002 -3.3904687499999966 10.227968750000002 -3.46875 8.21875 C-3.7734375 2.2265625 -3.7734375 2.2265625 -6 0 C-4 -1 -4 -1 0 0 Z " fill="#000000" transform="translate(65,234)"/>
<path d="M0 0 C0.8250000000000028 0.16500000000002046 0.8250000000000028 0.16500000000002046 5 1 C4.340000000000003 1.329999999999984 4.340000000000003 1.329999999999984 1 3 C0.6700000000000017 2.009999999999991 0.3400000000000034 1.0199999999999818 0 0 Z " fill="#000000" transform="translate(37,258)"/>
</svg>
