<?xml version="1.0" encoding="UTF-8"?>
<!-- Generator: visioncortex VTracer 0.6.12 -->
<svg version="1.1" xmlns="http://www.w3.org/2000/svg" width="100" height="240">
<path d="M0 0 C0.9899999999999984 0.6599999999999966 1.9800000000000004 1.3200000000000003 3 2 C3 2.6599999999999966 3 3.3200000000000003 3 4 C2.3361328125000007 3.9651953125000006 1.6722656250000014 3.930390625000001 0.98828125 3.89453125 C-3.0236661730884293 3.7715372414089643 -6.298844607877651 3.7616071666784023 -10.125 5.0625 C-12 7 -12 7 -12.4375 10.5 C-12 14 -12 14 -10 17 C-5.581075563305099 18.446671690584637 -1.1210864314093811 17.915534655199068 3.11767578125 16.0859375 C7.859233012985271 13.677787508844446 12.414753856088808 10.953471074445815 16.9677734375 8.20947265625 C27.588287952147965 1.8887099333324073 39.14803481214486 -2.562240194074171 51.734375 -0.56640625 C55.405394953476076 0.4953103051720049 57.495419078783314 1.4342577549994786 60.0625 4.3125 C61.171843416129775 7.4926177929053495 61.50823791226421 9.660150862263784 61 13 C59.68000000000001 13.990000000000002 58.36 14.980000000000004 57 16 C57 12.700000000000003 57 9.399999999999999 57 6 C46.16526701256316 1.9684714465351334 35.71893088846856 3.536334058366357 25.2890625 7.9453125 C16.80799678838943 11.834945722575952 6.2121445545268585 16.861892129709574 0 24 C-0.3299999999999983 24.989999999999995 -0.6600000000000001 25.980000000000004 -1 27 C-1.6600000000000001 27.33 -2.3200000000000003 27.659999999999997 -3 28 C-3 30.64 -3 33.28 -3 36 C1.6412425091951235 38.784745505517066 5.645831956700526 39.80622607601808 11 39 C13.433842780107092 38.156397124026626 15.662417679464752 37.100038739075416 18 36 C18.990000000000002 36 19.979999999999997 36 21 36 C19.52657764593137 39.884477115271835 17.70591421330723 41.207301661042436 14 43 C8.494533139774376 43.72519870826244 1.880224360015223 44.33389464357481 -3.27734375 41.9453125 C-5.364619514677877 40.22037555999725 -6.790053751889101 38.41989249622179 -8 36 C-8.38178403512341 30.941361534614828 -7.953267673983461 28.13457474357685 -5 24 C-4.670000000000002 23.340000000000003 -4.34 22.68 -4 22 C-4.536250000000003 22.226875 -5.072499999999998 22.45375 -5.625 22.6875 C-9.19209894471619 23.156855124304762 -11.015574193655176 21.90495264234776 -14 20 C-16.15049186347927 17.641396020700157 -16.954143305741695 16.050882576752848 -17.09375 12.8515625 C-16.75751543664918 7.791232321570121 -15.802970544279333 4.5856579417490835 -12 1 C-8.382075535413865 -1.8426549364605336 -4.238314478643936 -1.079160154726587 0 0 Z " fill="#000000" transform="translate(28,34)"/>
<path d="M0 0 C0.8250000000000028 0.3299999999999983 0.8250000000000028 0.3299999999999983 5 2 C5.431266846361183 7.261455525606465 5.431266846361183 7.261455525606465 5 10 C2.8125 12.0625 2.8125 12.0625 0 13 C-3.4010143956763343 12.762719925883047 -4.569534002533615 12.430465997466385 -7 10 C-5.515000000000001 9.835000000000008 -5.515000000000001 9.835000000000008 2 9 C2.2014047597279713 5.3747143248965585 1.8577676547147632 3.134982917331172 0 0 Z " fill="#000000" transform="translate(56,85)"/>
<path d="M0 0 C0.6599999999999966 0 1.3200000000000003 0 2 0 C2.3299999999999983 7.590000000000003 2.6599999999999966 15.180000000000007 3 23 C4.32 23.329999999999984 5.640000000000001 23.659999999999997 7 24 C7 24.329999999999984 7 24.659999999999997 7 25 C4.689999999999998 25 2.3800000000000026 25 0 25 C-0.1957296664963124 21.958662105211204 -0.3818391577042206 18.917239369030142 -0.5625 15.875 C-0.6185742187499983 15.01906249999999 -0.6746484374999966 14.163125000000008 -0.732421875 13.28125 C-0.9979835245428887 8.678181407923233 -1.0051534632173684 4.5418045375006955 0 0 Z " fill="#000000" transform="translate(38,134)"/>
<path d="M0 0 C0.3299999999999983 0.16499999999999204 0.3299999999999983 0.16499999999999204 2 1 C3.173128342245988 6.594919786096256 3.173128342245988 6.594919786096256 3 9 C2.010000000000005 9.990000000000009 1.019999999999996 10.97999999999999 0 12 C0 8.039999999999992 0 4.0800000000000125 0 0 Z " fill="#000000" transform="translate(65,144)"/>
<path d="M0 0 C0.3299999999999983 0 0.6599999999999966 0 1 0 C1 2.969999999999999 1 5.939999999999998 1 9 C0.3400000000000034 8.669999999999987 -0.3200000000000003 8.340000000000003 -1 8 C-0.6700000000000017 5.360000000000014 -0.3400000000000034 2.719999999999999 0 0 Z " fill="#000000" transform="translate(50,146)"/>
<path d="M0 0 C0.990000000000002 0.3300000000000125 1.9799999999999969 0.6599999999999966 3 1 C3.3299999999999983 8.259999999999991 3.6599999999999966 15.52000000000001 4 23 C5.32 23.329999999999984 6.640000000000001 23.659999999999997 8 24 C8 24.659999999999997 8 25.319999999999993 8 26 C2.25 26.125 2.25 26.125 0 25 C0 16.75 0 8.5 0 0 Z " fill="#000000" transform="translate(36,193)"/>
<path d="M0 0 C0.3299999999999983 0.16499999999999204 0.3299999999999983 0.16499999999999204 2 1 C2.508461554752266 4.367145407026101 2.8399343364689997 7.706266051597055 3.123046875 11.09765625 C3.678008046114222 16.587272158859633 3.678008046114222 16.587272158859633 5.56640625 19.0078125 C6.039492187500002 19.335234375 6.512578124999997 19.662656249999998 7 20 C5.350000000000001 20 3.700000000000003 20 2 20 C-0.56780471128004 16.158402400447187 -0.22688882063383176 12.186082498365266 -0.125 7.75 C-0.11597656250000199 7.004921875000008 -0.10695312499999687 6.2598437499999875 -0.09765625 5.4921875 C-0.07418358221205068 3.6613194125397683 -0.03831525245782075 1.830617617429283 0 0 Z " fill="#000000" transform="translate(50,199)"/>
<path d="M0 0 C0.6599999999999966 0 1.3199999999999932 0 2 0 C3.3259435910499633 5.966746159724806 3.0884586968452226 11.9258361499611 3 18 C1.6800000000000068 18.329999999999984 0.35999999999999943 18.659999999999997 -1 19 C-0.6700000000000017 12.72999999999999 -0.3400000000000034 6.460000000000008 0 0 Z " fill="#000000" transform="translate(63,200)"/>
</svg>
