<?xml version="1.0" encoding="UTF-8"?>
<!-- Generator: visioncortex VTracer 0.6.12 -->
<svg version="1.1" xmlns="http://www.w3.org/2000/svg" width="1690" height="185">
<path d="M0 0 C2.5 1.999999999999993 2.5 1.999999999999993 4.5 5 C4.169472073450606 11.169854628921186 4.169472073450606 11.169854628921186 1.9375 13.9375 C1.463124999999991 14.288125 0.9887499999999818 14.638750000000002 0.5 15 C0.16999999999995907 14.835 0.16999999999995907 14.835 -1.5 14 C-1.1493749999999636 13.2575 -0.7987500000000409 12.515 -0.4375 11.75 C0.5431159789194453 8.873526461836306 0.7676438962421344 7.730309930367554 -0.5 5 C-1.490000000000009 4.670000000000002 -2.480000000000018 4.340000000000003 -3.5 4 C-5.84765625 5.2578125 -5.84765625 5.2578125 -8.5625 7.125 C-12.837406218585215 10.050266222996619 -17.196485883572677 12.391154737826007 -21.835205078125 14.666015625 C-27.13220438255098 17.317669697320973 -32.27172234494617 20.265042323973603 -37.439453125 23.158203125 C-38.280566406250045 23.62548828125 -39.12167968749998 24.0927734375 -39.98828125 24.57421875 C-40.736340332031205 24.99276123046875 -41.48439941406252 25.411303710937503 -42.255126953125 25.842529296875 C-44.61940484572972 27.06156589163725 -47.01673981413421 28.050156395609946 -49.5 29 C-48.84000000000003 31.97 -48.17999999999995 34.94 -47.5 38 C-49.809999999999945 39.97999999999999 -52.120000000000005 41.96000000000001 -54.5 44 C-53.5 48 -53.5 48 -50.4375 50.25 C-49.95281250000005 50.53874999999999 -49.95281250000005 50.53874999999999 -47.5 52 C-47.83000000000004 52.99000000000001 -48.15999999999997 53.97999999999999 -48.5 55 C-50.14999999999998 55 -51.799999999999955 55 -53.5 55 C-53.252500000000055 55.35062500000001 -53.252500000000055 55.35062500000001 -52 57.125 C-50.232606957735584 60.51250333100688 -49.872254299595056 62.233525797570564 -50.5 66 C-53.050243654497535 69.1016476879024 -54.67699246989491 70.72566415663164 -58.5 72 C-58.149374999999964 71.319375 -57.79875000000004 70.63875 -57.4375 69.9375 C-56.24079522396369 66.18782503508626 -56.6141423843236 63.81600203675994 -57.5 60 C-58.077499999999986 59.175 -58.65499999999997 58.349999999999994 -59.25 57.5 C-60.5 55 -60.5 55 -60.02734375 53.13671875 C-59.27225100910857 51.38420117927993 -58.392854689193314 49.68650330180968 -57.5 48 C-57.995000000000005 47.83500000000001 -57.995000000000005 47.83500000000001 -60.5 47 C-61.6875 43.937500000000014 -61.6875 43.937500000000014 -62.5 41 C-61.736875000000055 40.731875 -60.973749999999995 40.463750000000005 -60.1875 40.1875 C-57.56396565741238 39.028263895135694 -56.22880272002703 38.24744353603516 -54.5 36 C-54.13546277669457 34.674857931498025 -53.79814239699999 33.34164078649987 -53.5 32 C-54.52480468750002 32.0580078125 -55.549609375000045 32.116015625 -56.60546875 32.17578125 C-57.96610010596851 32.222699572619604 -59.32678095990593 32.26819751962484 -60.6875 32.3125 C-61.02426757812498 32.333447265625 -61.02426757812498 32.333447265625 -62.728515625 32.439453125 C-66.67384041524224 32.535680558908346 -68.30509460718702 32.1553518284504 -71.42578125 29.66796875 C-74.5386288016324 25.664061258917272 -74.91177598092327 22.26302536309126 -74.83984375 17.34765625 C-74.1564792368813 12.626942774317897 -71.48963879001019 9.563948630287044 -67.8203125 6.6796875 C-64.02320263457 4.266413229971185 -60.94885938617699 3.3792289228590207 -56.5 4 C-55.84000000000003 4.659999999999997 -55.17999999999995 5.32 -54.5 6 C-55.25925781249998 6.207539062500004 -56.018515624999964 6.415078125000001 -56.80078125 6.62890625 C-64.89056548491067 9.136634436956733 -64.89056548491067 9.136634436956733 -67.75 13.1875 C-68.64444592583015 17.73426678963662 -68.35070936158093 21.479965922202425 -67.5 26 C-58.75936362546349 26.8368694401152 -53.0393450664219 25.509620827928494 -45.4912109375 21.1396484375 C-42.09431087416283 19.1954687543639 -38.64457063458883 17.347994836160062 -35.20458984375 15.4814453125 C-32.35499704885456 13.932088132660951 -29.513404664145355 12.36876734004015 -26.671875 10.8046875 C-22.896131038198064 8.737479798191892 -19.087592869065816 6.769250106474992 -15.224609375 4.87109375 C-13.703159590665678 4.102615149985169 -12.21889166662504 3.261457377218697 -10.7421875 2.41015625 C-4.33374689826303 -1.2382133995037208 -4.33374689826303 -1.2382133995037208 0 0 Z " fill="#000000" transform="translate(773.5,29)"/>
<path d="M0 0 C5.697392643773242 5.880001382355751 7.575571294724341 11.331284241967822 8.3125 19.4375 C7.683609434204072 26.606852450073234 6.124775124963776 31.381679536241393 0.8125 36.4375 C-4.5622386486476785 40.8191751057857 -8.71168064407641 41.6538611204291 -15.5625 42.375 C-21.119126266548278 41.76882258910382 -24.59733972721608 39.55429922119302 -28.3125 35.4375 C-29.55905776039458 33.63691656831891 -30.785218355240545 31.822172467139154 -32 30 C-32.495000000000005 30.164999999999992 -32.99000000000001 30.33 -33.5 30.5 C-39.18103368397374 31.636206736794747 -43.245673116898615 31.790821409905504 -48.25 28.8125 C-52.39354407064147 25.914461317979644 -55.30857904077098 23.17303730043406 -56.875 18.25 C-57.15646366654315 10.931944669878234 -55.16337356114323 4.963170439258093 -50.89453125 -0.98828125 C-37.605646632415244 -15.099158730528139 -13.582403723738253 -11.3101594917595 0 0 Z M-45.875 -0.8125 C-49.36283695921111 3.8037547989558718 -52.15671551234465 8.229853137673821 -52.5625 14.125 C-51.83204969420177 19.156990995498973 -50.68676472395356 20.559019590976682 -47 24 C-41.09940361924578 27.416134746752448 -34.44758698517953 26.052667262886445 -28 25 C-27.752499999999998 25.721874999999997 -27.504999999999995 26.443749999999994 -27.25 27.1875 C-25.374038609698403 31.40841312817865 -23.479668042228013 34.29379479802755 -19.25 36.3125 C-18.507499999999993 36.53937500000001 -17.764999999999986 36.76625 -17 37 C-17.329999999999984 37.99000000000001 -17.659999999999968 38.97999999999999 -18 40 C-4.329936132626699 36.789237668161434 -4.329936132626699 36.789237668161434 0.8125 30.9375 C4.131631345589028 25.52207517298629 3.497359753527462 19.11752496838779 3 13 C1.3593591573506387 6.308952707990223 -2.147335324680455 1.5924005189927755 -8 -2 C-19.355571835373667 -7.917432725900873 -35.29458116416538 -8.862818679439393 -45.875 -0.8125 Z " fill="#000000" transform="translate(288,41)"/>
<path d="M0 0 C2.916967580289281 3.1600482119800475 4.452048266800205 6.204156068076983 5.25 10.4375 C4.625 13.375000000000014 4.625 13.375000000000014 3.25 15.4375 C2.7549999999999955 15.6025 2.7549999999999955 15.6025 0.25 16.4375 C0.22421874999997726 15.76203125 0.19843750000001137 15.0865625 0.171875 14.390625 C-0.2827102803738626 7.241238317757023 -0.2827102803738626 7.241238317757023 -2.3125 3.75 C-5.861988737258059 1.8387368337841181 -8.966479514077093 2.5501097842472618 -12.75 3.4375 C-15.70192203541717 4.587238279431972 -18.45995936164087 6.005040566661108 -21.25 7.5 C-23.725000000000023 8.799374999999998 -26.19999999999999 10.098750000000003 -28.75 11.4375 C-26.439999999999998 18.0375 -24.129999999999995 24.637500000000003 -21.75 31.4375 C-11.750000000000114 28.43750000000003 -11.750000000000114 28.43750000000003 -8.75 27.4375 C-4.22095576380184 26.976278466764462 -0.18229650823911925 26.653147150250014 3.875 28.875 C5.9328483137321655 32.710080948319074 6.164726088621364 36.18893750574195 5.25 40.4375 C2.75 43.49999999999997 2.75 43.49999999999997 0.25 45.4375 C-0.40999999999996817 45.1075 -1.0699999999999932 44.7775 -1.75 44.4375 C-1.234375 43.550625 -0.71875 42.66374999999999 -0.1875 41.75 C1.3368937026628487 38.237266685168265 1.3994789489365758 36.9904349330767 0.25 33.4375 C-6.434541261012441 33.10327293694938 -10.955160347941273 33.849794694282565 -17 36.625 C-18.485112596382862 37.27213033188934 -19.970796157356233 37.91795183284691 -21.45703125 38.5625 C-22.18229003906248 38.8821875 -22.907548828125016 39.201875 -23.65478515625 39.53125 C-27.654567932300722 41.261288879596876 -31.739735971855566 42.7676657471915 -35.81640625 44.3046875 C-37.73414257022756 45.0452248273848 -39.639049876035926 45.82012906057241 -41.52734375 46.6328125 C-50.46036506404221 50.47468332077604 -50.46036506404221 50.47468332077604 -55.75 49.4375 C-58.753983454491674 46.880918336602804 -60.3705997075632 45.29114142876263 -61.16015625 41.43359375 C-61.355749215215326 36.95196363397888 -60.529464559946405 33.911830699933006 -57.75 30.4375 C-54.67301085704719 27.46661393094213 -52.01504504008875 26.604756668238778 -47.75 26.4375 C-45.09527155597061 27.14470224943406 -43.204279251447645 28.090052567832657 -40.75 29.4375 C-40.420000000000016 30.427500000000002 -40.09000000000003 31.41749999999999 -39.75 32.4375 C-40.56984375000002 32.31890625 -41.38968749999998 32.200312499999995 -42.234375 32.078125 C-43.31203125000002 31.94921875 -44.38968749999998 31.8203125 -45.5 31.6875 C-46.56734375000002 31.548281250000002 -47.634687499999984 31.409062500000005 -48.734375 31.265625 C-51.75 31.4375 -51.75 31.4375 -54.12109375 33.16015625 C-56.69533050664427 36.75914912559617 -56.10527963193448 39.10308849039954 -55.75 43.4375 C-54.75 44.4375 -54.75 44.4375 -51.60546875 44.69140625 C-47.33786907819251 44.41035865256586 -44.83521162954548 43.33502414836741 -41.0625 41.375 C-35.263146104508564 38.369694397283524 -35.263146104508564 38.369694397283524 -32.35546875 38.75390625 C-31.825664062499982 38.9794921875 -31.29585937500002 39.205078125 -30.75 39.4375 C-30.420000000000016 38.44749999999999 -30.090000000000032 37.45750000000001 -29.75 36.4375 C-29.090000000000032 36.1075 -28.430000000000007 35.7775 -27.75 35.4375 C-29.302387677776153 28.215043853750757 -30.9337264218546 21.277021546924587 -33.75 14.4375 C-35.89745404401174 15.182846780567374 -38.042877276645186 15.934045244281691 -40.1875 16.6875 C-40.82985595703127 16.912763671875 -41.472211914062484 17.138027343749997 -42.134033203125 17.3701171875 C-45.678049459310785 18.632308585533764 -49.06962328866581 20.01585316517719 -52.4375 21.6875 C-57.359185796826466 23.941356112565394 -62.35033574862888 24.677485077838718 -67.75 24.4375 C-70.91837867290644 23.1067809573793 -72.22728891130657 22.482922177386868 -73.75 19.4375 C-74.27132628019308 14.919338904993339 -74.10267424136475 12.97154956549516 -71.5625 9.125 C-68.92440802366991 6.6041565559512705 -67.2120024249881 5.426643549996598 -63.75 4.4375 C-63.75 5.097499999999997 -63.75 5.7575 -63.75 6.4375 C-64.57499999999999 7.159374999999997 -65.39999999999998 7.881250000000001 -66.25 8.625 C-68.75 11.4375 -68.75 11.4375 -69.0625 15.25 C-68.95937500000002 16.301874999999995 -68.85624999999999 17.353750000000005 -68.75 18.4375 C-63.18383544344158 18.749960934637087 -58.83464426475126 17.758854377958507 -53.625 15.75 C-52.836013183593764 15.453999023437504 -52.04702636718753 15.157998046875 -51.234130859375 14.85302734375 C-41.810881180196304 11.223028457248247 -32.62714046309452 7.001859912083624 -23.45068359375 2.794189453125 C-22.851027832031264 2.520062255859372 -22.851027832031264 2.520062255859372 -19.81640625 1.1328125 C-18.743342285156245 0.6379736328125034 -17.67027832031249 0.14313476562499972 -16.564697265625 -0.36669921875 C-10.654007297362966 -2.877806813905469 -5.828335976386029 -3.3115545320375013 0 0 Z " fill="#000000" transform="translate(393.75,33.5625)"/>
<path d="M0 0 C4.2733005342845445 1.4379627306683318 7.857951851553253 2.717980352770823 10.94140625 6.09375 C11.281718749999982 6.454687499999999 11.281718749999982 6.454687499999999 13.00390625 8.28125 C15.00390625 8.21875 15.00390625 8.21875 17.00390625 7.28125 C22.927792414507053 4.573187753368202 28.996972545392396 3.339451996672963 35.31640625 5.34375 C39.318043005928416 7.116930358914374 41.17462445444812 9.241586034823001 43.00390625 13.28125 C43.39546843399671 19.800416887945403 42.20752488836911 25.085439366699305 40.337890625 31.28125 C38.76944196373256 36.91665852329072 38.4153694057909 42.05274885979091 41.08984375 47.48828125 C41.51523437499998 48.01808593749999 41.940624999999955 48.54789062500001 42.37890625 49.09375 C42.58902343750003 49.36509765625 42.58902343750003 49.36509765625 43.65234375 50.73828125 C45.04103257892086 52.323634103825896 46.494213012100545 53.811285531518934 48.00390625 55.28125 C41.719516579788205 54.05502762532453 38.633344702209456 50.23898809193558 35.00390625 45.28125 C33.596903689165856 43.03444278566789 32.952263833320785 41.8950905437099 33.17578125 39.23828125 C33.27117187500005 38.88443359375 33.27117187500005 38.88443359375 33.75390625 37.09375 C33.95242187500003 36.3035546875 34.150937500000055 35.51335937499999 34.35546875 34.69921875 C34.569453124999995 33.9012890625 34.78343749999999 33.103359375 35.00390625 32.28125 C36.80966027078648 25.50365324198144 37.23996388807177 19.29740757602204 37.00390625 12.28125 C32.38697157915135 9.243792979704871 28.916684774665214 8.845255503396785 23.59765625 9.57421875 C16.85644853693782 11.41180699708471 11.630711817331644 16.23382574472911 7.00390625 21.28125 C6.343906250000032 21.941249999999997 5.68390624999995 22.60125 5.00390625 23.28125 C5.2304139187195915 25.621829243435798 5.768808298442309 26.971910590055614 7.19140625 28.84375 C9.00390625 30.28125 9.00390625 30.28125 11.94140625 31.65625 C15.924014295195093 33.76947059540967 18.035454776196502 36.21522018921931 19.94140625 40.28125 C20.037982018217008 43.3716745829453 18.86296751328507 44.86447035772936 17.00390625 47.28125 C12.832203699245838 50.71676974767985 8.270047592231776 51.29874548618682 3.00390625 51.28125 C-0.8983934166606105 50.735194415245445 -4.128765882326093 50.14857786767395 -6.99609375 47.28125 C-5.971289062499977 47.339257812499994 -4.9464843749999545 47.397265625 -3.890625 47.45703125 C-2.5299936440314923 47.503949572619604 -1.169312790094068 47.549447519624835 0.19140625 47.59375 C0.5281738281249773 47.614697265625 0.5281738281249773 47.614697265625 2.232421875 47.720703125 C6.222269434696159 47.81801648011454 7.8028564528545985 47.44579409299081 10.9296875 44.88671875 C13.00390625 42.28125 13.00390625 42.28125 14.00390625 40.28125 C10.650030451897806 35.879288014990934 7.174818692212966 32.70252376030666 2.67578125 29.48046875 C1.00390625 28.281250000000007 1.00390625 28.281250000000007 0.00390625 27.28125 C-0.45972576414828836 23.9257132976021 -0.23752225307305252 22.62021992953784 1.75390625 19.82421875 C2.49640624999995 19.0469140625 3.2389062500000136 18.269609375 4.00390625 17.46875 C4.74640624999995 16.678554687499997 5.488906250000014 15.888359375 6.25390625 15.07421875 C6.831406249999986 14.482539062500003 7.408906249999973 13.890859374999998 8.00390625 13.28125 C5.436476297833451 8.726852519635017 3.224621799812894 6.242296425523648 -1.9130859375 4.709228515625 C-5.327274556175212 4.0077432075451185 -8.776521283703573 4.178905086517801 -12.24609375 4.21875 C-12.618632812499982 4.221005859374998 -12.618632812499982 4.221005859374998 -14.50390625 4.232421875 C-16.33467015213455 4.244157541039321 -18.165392479166826 4.262091498328488 -19.99609375 4.28125 C-14.082667460430798 -1.829290499221564 -8.222465281781297 -1.972534044130068 0 0 Z " fill="#000000" transform="translate(533.99609375,31.71875)"/>
<path d="M0 0 C2.5829778142140185 2.189915972920552 4.484158439509997 3.968316879020044 6 7 C6.121149211022839 8.642557907587943 6.1754076708997445 10.290524776540934 6.1875 11.9375 C6.201679687500018 12.812773437499999 6.215859375000036 13.688046874999998 6.23046875 14.58984375 C6 17.000000000000014 6 17.000000000000014 4 20 C3.340000000000032 20 2.6800000000000637 20 2 20 C2.041249999999991 18.845 2.082499999999982 17.689999999999998 2.125 16.5 C2.140874332168096 12.05518699294386 1.2179310541392852 8.262758689487654 0 4 C-4.998349924012473 3.7059794162345625 -8.05062317756392 3.797802576403221 -12 7 C-16.806284817928486 13.308248823531187 -19.557197561097723 20.72858051265481 -22.669921875 27.970703125 C-26.172324992019185 35.862256399980964 -30.43060764424274 43.23549853419523 -37 49 C-45.07870741330703 51.69290247110236 -54.022912711791605 52.41875169494645 -62 49 C-64.81351701568144 45.91420714409128 -65.74399132490112 42.63052996769818 -65.6328125 38.4375 C-64.5937797061523 34.43529960888304 -62.18998915644693 31.21209498375577 -59.94091796875 27.796875 C-57.025188860010985 23.28967117682955 -55.712859815180764 20.359950116625143 -56 15 C-57.43560761514402 11.199862195207047 -58.635146709967785 10.207465596292849 -62.1875 8.1875 C-63.11562500000002 7.795625000000001 -64.04375000000005 7.403750000000002 -65 7 C-65 6.670000000000002 -65 6.340000000000003 -65 6 C-60.86314907860776 5.669051926288617 -58.40006625342107 5.807375507612072 -54.625 7.625 C-52 10 -52 10 -51 16 C-40.76999999999998 15.340000000000003 -30.539999999999964 14.68 -20 14 C-19.340000000000032 12.019999999999996 -18.67999999999995 10.04 -18 8 C-13.186860279701364 1.1813853962435275 -8.4472344723697 -2.45737730105299 0 0 Z M-53.859375 22.078125 C-55.6462282269506 24.655621247725122 -56.84246526392394 27.09121344919643 -58 30 C-58.85362610573554 31.39616398051792 -59.70774032218401 32.79202972727158 -60.5625 34.1875 C-62.073328856256126 37.37057105185582 -61.983199212940235 38.115738755300384 -61.4375 41.875 C-60 45 -60 45 -57 47 C-43.071040897627995 48.70024852892804 -43.071040897627995 48.70024852892804 -38.0625 44.8125 C-32.006531217473935 38.2557792767999 -24 26.936212693422902 -24 18 C-48.166348367123305 17.94057012473992 -48.166348367123305 17.94057012473992 -53.859375 22.078125 Z " fill="#000000" transform="translate(864,32)"/>
<path d="M0 0 C5.646167860815012 3.214858843198776 8.685138377450812 8.105324928243675 10.5625 14.25 C11.029055614165145 17.69585152542482 11.086987624332778 21.088357044019403 11.0625 24.5625 C11.056779785156323 25.495136718750004 11.051059570312418 26.4277734375 11.045166015625 27.388671875 C10.840433224496792 35.25813161748778 9.63525104070959 41.224606529531115 3.8828125 46.91015625 C0.33057845313715006 49.74404963405283 -2.8460927216474374 50.91404336987664 -7.4375 51.25 C-7.4375 53.56 -7.4375 55.870000000000005 -7.4375 58.25 C-6.880625000000009 58.2396875 -6.880625000000009 58.2396875 -4.0625 58.1875 C-0.4375 58.25 -0.4375 58.25 1.5625 59.25 C1.5625 59.91 1.5625 60.56999999999999 1.5625 61.25 C-1.3941451925713864 62.728322596285636 -4.179797369640937 62.310327826488134 -7.4375 62.25 C-7.4375 63.900000000000006 -7.4375 65.55 -7.4375 67.25 C-7.932499999999891 67.41499999999999 -7.932499999999891 67.41499999999999 -10.4375 68.25 C-10.4375 66.27 -10.4375 64.29 -10.4375 62.25 C-13.0775000000001 62.25 -15.717499999999973 62.25 -18.4375 62.25 C-18.4375 61.260000000000005 -18.4375 60.27000000000001 -18.4375 59.25 C-15.728706646414366 57.895603323207226 -13.428167323211255 58.18498549297367 -10.4375 58.25 C-10.767499999999927 56.27000000000001 -11.097500000000082 54.28999999999999 -11.4375 52.25 C-11.8055273437501 52.17072265625001 -11.8055273437501 52.17072265625001 -13.66796875 51.76953125 C-18.045954608058764 50.72274731300048 -21.76118854708966 49.6610912752985 -25.625 47.3125 C-28.439728383023294 42.55657962868489 -28.29762200003711 37.640097866899595 -27.4375 32.25 C-26.01171875 29.55078125 -26.01171875 29.55078125 -24.4375 27.25 C-23.88062500000001 26.321875 -23.323750000000018 25.393749999999997 -22.75 24.4375 C-22.53343749999999 24.0765625 -22.53343749999999 24.0765625 -21.4375 22.25 C-22.221250000000055 21.981875000000002 -23.00500000000011 21.713750000000005 -23.8125 21.4375 C-26.4375 20.25 -26.4375 20.25 -28.4375 17.25 C-25.4375 16.25 -25.4375 16.25 -21.875 17.375 C-18.4375 19.25 -18.4375 19.25 -16.625 21.4375 C-16.39368451389032 24.907232291644483 -17.098678457668484 25.386196290355755 -19.25 28 C-22.24927935042274 31.65580363219732 -23.517848109066108 34.45586220597036 -23.72265625 39.19921875 C-23.4375 41.25 -23.4375 41.25 -21.5625 44.25 C-16.344802519483437 47.58932638753056 -11.201377753629231 47.795944061670724 -5.1875 46.625 C-0.8929205293193263 45.05032086075042 0.8698509696966994 43.942775812987435 3.5625 40.25 C7.620874191689381 31.036836008382323 7.614265038306485 21.72653354000436 4.5625 12.25 C2.596148189351652 8.130024777689314 0.3469807702979324 5.793499271094575 -3.4375 3.25 C-6.129746135303094 2.6585428179437756 -8.53486263456739 2.249428887159361 -11.25 2 C-11.94287109375 1.9226562500000028 -12.6357421875 1.8453124999999986 -13.349609375 1.765625 C-15.043975805043146 1.578660428409023 -16.74058580486053 1.4122207280888048 -18.4375 1.25 C-18.4375 0.259999999999998 -18.4375 -0.7299999999999969 -18.4375 -1.75 C-12.488118581704612 -3.7331271394318115 -5.640917657810178 -2.618997483983307 0 0 Z " fill="#000000" transform="translate(1403.4375,33.75)"/>
<path d="M0 0 C0.9900000000000091 0.6600000000000001 1.9800000000000182 1.3200000000000003 3 2 C2.154374999999959 2.721874999999997 1.3087500000000318 3.4437500000000014 0.4375 4.1875 C0.03531250000003183 4.651562499999997 0.03531250000003183 4.651562499999997 -2 7 C-1.65234375 9.67578125 -1.65234375 9.67578125 -1 12 C0.27874999999994543 11.953593749999996 1.5575000000000045 11.9071875 2.875 11.859375 C4.583309790564499 11.821829729877706 6.291645082981631 11.785432546427046 8 11.75 C8.83917968749995 11.716484375 9.678359375000014 11.68296875 10.54296875 11.6484375 C16.442590988937468 11.556970488543605 21.177245923107876 12.417341724686864 26 16 C28.134805706210045 18.69727401816533 30 21.453666379695903 30 25 C30.886875000000032 24.484375 31.77374999999995 23.96875 32.6875 23.4375 C36.36058924995632 21.84351787266047 37.29397840658339 21.842222963159287 41 23 C43.1328125 24.48828125 43.1328125 24.48828125 45.125 26.3125 C45.78757812499998 26.906757812500004 46.450156249999964 27.501015625 47.1328125 28.11328125 C48.96557702151381 29.965216948517075 50.492185881901605 31.878758399072822 52 34 C52.38671875 33.1453515625 52.7734375 32.290703125 53.171875 31.41015625 C53.69265625000003 30.305429687499995 54.213437500000055 29.200703125000004 54.75 28.0625 C55.26046874999997 26.9603515625 55.770937499999945 25.858203125000003 56.296875 24.72265625 C58 22 58 22 60.0546875 21.21875 C60.6966406250001 21.1465625 61.33859374999997 21.074375000000003 62 21 C62.783750000000055 20.484375 63.56750000000011 19.96875 64.375 19.4375 C67.64404117398885 17.647310785672772 69.31981031400392 17.39915270432718 73 18 C75.92152702295903 19.834447200462677 78.43266090435941 21.865321808718967 80 25 C80.54748593366139 30.853888059917423 80.63586925673417 36.11038272370229 77 41 C74.00421412223636 42.2290403601082 72.68729793067314 42.278634296218854 69.6875 41.0625 C69.13062500000001 40.71187499999999 68.57375000000002 40.36125 68 40 C68 39.34 68 38.68000000000001 68 38 C70.30999999999995 37.34 72.61999999999989 36.68000000000001 75 36 C76.55405405405395 26.831081081081074 76.55405405405395 26.831081081081074 74 23 C71.6875 22 71.6875 22 69 22 C61.03905145423096 25.495050581069307 57.830680160681595 33.70893876083622 54 41 C51.05172145598908 40.665761992472525 49.44497061245147 40.45753448856763 47.33984375 38.29296875 C46.87707031250011 37.59816406249999 46.41429687499999 36.90335937500001 45.9375 36.1875 C45.43347656249989 35.47078125 44.92945312500001 34.7540625 44.41015625 34.015625 C43.94480468749998 33.350468750000005 43.479453124999964 32.6853125 43 32 C40.875 29.4375 40.875 29.4375 39 28 C36.26772133639565 28 35.174618593084006 28.859178553964476 33.0625 30.5625 C31.263977041542944 32.68802713272192 29.965802682115964 34.67688544040291 28.5625 37.0625 C25.43152219299077 42.145623608367316 22.30220666368575 43.80884496803627 16.5625 45.1875 C10.077225390941976 46.3746682718548 3.5672040072142863 46.17033093966839 -3 46 C-2.340000000000032 47.31999999999999 -1.67999999999995 48.64 -1 50 C-1.6599999999999682 50.16499999999999 -1.6599999999999682 50.16499999999999 -5 51 C-5.659999999999968 49.02000000000001 -6.32000000000005 47.03999999999999 -7 45 C-5.65234375 43.03515625 -5.65234375 43.03515625 -3 41 C0.46904642844617683 40.41278963163657 3.9251183094060025 40.43989426154778 7.4375 40.4375 C18.87657170281625 40.38269267493517 18.87657170281625 40.38269267493517 23 37 C25.077932377939078 34.64500997166898 25.954194672456083 33.00771720596657 26.09765625 29.8515625 C25.75214543397192 24.778452469538706 24.76047622444196 21.64652239945886 21 18 C18.673260740627143 16.836630370313586 17.407277128739793 16.91108254412518 14.82421875 16.97265625 C14.410107421874955 16.978779296875004 14.410107421874955 16.978779296875004 12.314453125 17.009765625 C10.574781761611916 17.044688395863552 8.835187193192041 17.08369542021451 7.095703125 17.126953125 C-1.3022503398202616 17.23753810478462 -1.3022503398202616 17.23753810478462 -5 15 C-6.5 11.6875 -6.5 11.6875 -7 8 C-5.459049265642648 4.233231538237618 -3.3739501664035743 2.210519074540258 0 0 Z " fill="#000000" transform="translate(987,31)"/>
<path d="M0 0 C2.3783233809431295 2.845537574329555 3.469701967615265 4.999758976120141 4.1328125 8.640625 C4.2987792968749545 9.539584960937503 4.464746093749909 10.438544921875 4.6357421875 11.36474609375 C4.716469726562536 11.84081298828125 4.716469726562536 11.84081298828125 5.125 14.25 C5.2967675781249 15.224047851562503 5.468535156250027 16.198095703125 5.6455078125 17.20166015625 C7.040372595591862 25.461155604868523 7.760148531519917 33.62918375004195 8 42 C9.319999999999936 42 10.6400000000001 42 12 42 C12.203671875000055 41.1994921875 12.40734375000011 40.398984375 12.6171875 39.57421875 C14.460672320790309 34.80927917083886 17.195375467786334 30.974433469925344 20.125 26.8125 C20.70813964843751 25.9747705078125 21.291279296875018 25.137041015625 21.89208984375 24.27392578125 C23.05455921908174 22.608245195561608 24.220655566319465 20.945089116042638 25.390625 19.28466796875 C26.78024835076735 17.311959334575242 28.157782653175673 15.331616278533666 29.53125 13.34765625 C34.616413852318146 6.127862049227247 34.616413852318146 6.127862049227247 38 5 C38.6875 6.750000000000007 38.6875 6.750000000000007 39 9 C38.006921793044285 10.338496713723003 37.00642947999245 11.67151308640998 36 13 C35.6328125 15.40625 35.6328125 15.40625 36 18 C37.86328125 19.87890625 37.86328125 19.87890625 40.3125 21.5625 C43.48166501047672 23.772239854326017 45.96535007732109 25.674763071350014 48 29 C48 29.989999999999995 48 30.980000000000004 48 32 C47.38124999999991 32.268125 46.762500000000045 32.53625 46.125 32.8125 C44 33.99999999999999 44 33.99999999999999 42 37 C41.33999999999992 37 40.680000000000064 37 40 37 C40.62648437500002 37.747656250000006 41.252968750000036 38.4953125 41.8984375 39.265625 C42.71570312499989 40.25046875000001 43.53296875000001 41.23531249999999 44.375 42.25 C44.781054687500045 42.73726562499999 44.781054687500045 42.73726562499999 46.8359375 45.203125 C51.040098199672684 50.63666121112931 51.040098199672684 50.63666121112931 50.9375 54.125 C50 56 50 56 48 57.25 C42.15420004558837 58.71144998860291 36.4518008946543 58.813832719821505 31 56 C31 55.34 31 54.68000000000001 31 54 C31.60328125000001 54.011601562500005 32.20656250000002 54.02320312500001 32.828125 54.03515625 C33.62734374999991 54.04417968749999 34.426562500000045 54.05320312500001 35.25 54.0625 C35.64445312499993 54.06830078125 35.64445312499993 54.06830078125 37.640625 54.09765625 C39.906910015869926 54.003853062257036 41.8288895020587 53.63241062669394 44 53 C43.850552593977 45.975971916922134 40.50096087863585 42.18256853127514 36 37 C37.151733552016594 34.531999531393154 38.04783565482535 32.95216434517473 40 31 C40.625 28.875000000000007 40.625 28.875000000000007 41 27 C40.40187500000002 26.71125 39.803750000000036 26.4225 39.1875 26.125 C37 25 37 25 34 23 C31.55517578125 23.04736328125 31.55517578125 23.04736328125 29 24 C27.01123046875 26.269042968750007 27.01123046875 26.269042968750007 25.1171875 29.2421875 C24.424960937499918 30.3082421875 23.732734375000064 31.374296875 23.01953125 32.47265625 C22.303990823166032 33.60633141185622 21.58915383355702 34.740450848548576 20.875 35.875 C19.46146477636853 38.08448186504779 18.039474232943803 40.28830768390581 16.6171875 42.4921875 C15.994409179687409 43.475581054687495 15.371630859375045 44.45897460937499 14.72998046875 45.47216796875 C11.888426700587388 49.62422099098484 11.888426700587388 49.62422099098484 10 51 C7.3125 51.1875 7.3125 51.1875 5 51 C3.5249946242154238 43.05720523753192 2.1494991197062063 35.10242041593911 0.875 27.125 C0.6932421874998909 26.043476562500004 0.5114843750000091 24.961953125 0.32421875 23.84765625 C-0.8829446053016454 16.232543053774293 -1.5087587444052133 8.713390038311317 -1 1 C-0.6700000000000728 0.6700000000000017 -0.33999999999991815 0.33999999999999986 0 0 Z " fill="#000000" transform="translate(1187,30)"/>
<path d="M0 0 C0 0.6599999999999966 0 1.3200000000000003 0 2 C-4.637002341920379 2.128805620608901 -4.637002341920379 2.128805620608901 -6.9375 1.3125 C-10.218136391381904 0.8154338800936642 -12.239445667315294 2.3436674003891795 -15 4 C-16.414418736546622 6.828837473093039 -16.319003321788614 8.873767446471504 -16 12 C-13.790717246811255 14.761603441486024 -12.137311780898472 14.979651579726834 -8.65234375 15.49609375 C-2.069731140755266 15.397466637125959 3.401192445261586 11.385765320466462 8.9375 8.1875 C21.313219652854514 1.140902345005152 33.80435647739205 -5.526528132817795 48.5625 -2.25 C54.23651452282161 -0.1867219917012406 54.23651452282161 -0.1867219917012406 56 2 C56.6230418336329 4.992730858988885 56.87207838688096 7.949069527112762 57 11 C56.00999999999999 11.659999999999997 55.01999999999998 12.32 54 13 C53.835000000000036 11.515 53.835000000000036 11.515 53 4 C42.71968906843563 0.11945645201225119 32.62420408197568 0.961967634496034 22.64697265625 5.230224609375 C11.388571531789239 10.404719225325046 -2.90553890191768 17.112924104474573 -8 29 C-7.625 31.75 -7.625 31.75 -6 34 C-1.7161954733417133 37.13449111706696 1.572874349685435 37.28967122938434 6.609375 36.52734375 C10.517963737272112 35.66515505795469 14.256943892371964 34.40696435251266 18 33 C16.43084169507165 36.55675882450444 14.773839878486797 38.38599413465519 11.25390625 40.23046875 C5.821136758412877 42.085331124077385 -0.20501759998455782 42.176149426093446 -5.515625 39.94140625 C-10.55717741935473 36.88564516129031 -10.55717741935473 36.88564516129031 -12 34 C-12.777257838312607 27.52285134739546 -10.669477453446007 24.0455314984883 -7 19 C-7.301640624999891 19.01740234375 -7.301640624999891 19.01740234375 -8.828125 19.10546875 C-9.627343749999909 19.1325390625 -10.426562500000045 19.159609375000002 -11.25 19.1875 C-11.644453124999927 19.20490234375 -11.644453124999927 19.20490234375 -13.640625 19.29296875 C-16.63116157492027 18.921627287882416 -17.891599515652842 18.14112510383824 -20 16 C-21.425808588692917 11.473252513494415 -21.285721457069712 7.1224771527738255 -20.125 2.5625 C-14.933505969573162 -3.697831036691305 -6.63257408022082 -4.4217160534806155 0 0 Z " fill="#000000" transform="translate(1288,38)"/>
<path d="M0 0 C2.0625 0.4375 2.0625 0.4375 4 1 C2.332541567695955 6.643705463182897 2.332541567695955 6.643705463182897 0.25 8.875 C-1.3014802289574163 11.512516389227564 -0.9514921609142561 12.28352877503876 -0.25 15.1875 C0.793733681462129 18.793733681462143 0.793733681462129 18.793733681462143 2 20 C9.96250921364907 20.948148120215805 16.3037951685414 17.882039454845597 23.5625 14.875 C24.81782534614456 14.366680489463938 26.0736882753053 13.859686608197265 27.330078125 13.35400390625 C30.89250391974184 11.91669843929563 34.44623787831938 10.45859851787688 38 9 C40.37187960867385 8.038717147923023 42.74539185065561 7.081793805241517 45.120849609375 6.12939453125 C46.85391668217824 5.4336458947731785 48.583384399867555 4.7289492896766845 50.3125 4.0234375 C55.84954229959226 1.9148545312599268 61.08733002997491 1.2904796035969852 67 2 C70.42888219892973 4.314495484277579 71.97994414002426 7.012508911003842 73 11 C72.75 14.749999999999993 72.75 14.749999999999993 72 18 C71.34000000000003 18.33 70.68 18.659999999999997 70 19 C69.00999999999999 15.369999999999997 68.01999999999998 11.739999999999995 67 8 C56.113747099864895 5.0310219363267805 44.411832330033235 12.428795081901711 34.64990234375 16.73779296875 C26.54284784997492 20.29709906530313 18.642371578858103 23.040632403999822 9.9375 24.6875 C9.600087890624991 24.752275390625 9.600087890624991 24.752275390625 7.892578125 25.080078125 C6.26275357318616 25.392172188113292 4.631523112314255 25.69691072617087 3 26 C2.5815399062282154 27.577504238391377 2.1910361141149792 29.162442478984474 1.8125 30.75 C1.7022851562500136 31.190859375000002 1.7022851562500136 31.190859375000002 1.14453125 33.421875 C0.9620734594664668 36.676527479787595 1.9227120778080575 37.593066891163005 4 40 C4 40.66 4 41.31999999999999 4 42 C14.417881491156777 44.77810173097514 24.139826896935347 38.07849838480311 32.9375 33.0625 C54.89599593095505 20.84303441260267 54.89599593095505 20.84303441260267 64 21 C68.39821006234092 23.157612483412542 71.06161989172222 25.477113080685108 73 30 C73.1875 33.31249999999997 73.1875 33.31249999999997 73 36 C72.58749999999998 35.4225 72.17500000000001 34.845 71.75 34.25 C69.49590532228893 31.351878271514366 67.3162566984264 28.658128349213193 64 27 C59.09472125394825 26.589457190085128 55.77883390007918 27.638830990842777 51.3125 29.625 C50.698745117187514 29.897153320312498 50.08499023437503 30.169306640624995 49.45263671875 30.44970703125 C44.83266523386101 32.533317773720086 40.40261753065005 34.88656075360609 35.9765625 37.34765625 C14.995720272238259 48.9945017386394 14.995720272238259 48.9945017386394 6 48 C1.5559020726906283 46.57736659595676 -0.31721982527182035 44.83254310675457 -3 41 C-4.585318218234363 37.829363563531274 -4.296925487257909 34.46202483015611 -4 31 C-3.5874999999999773 29.865624999999994 -3.1750000000000114 28.731250000000003 -2.75 27.5625 C-1.9184246875590247 23.61251726590534 -2.214433563652335 22.996871327054706 -3.9375 19.5625 C-6.349967378485644 14.753920954069287 -6.368292503840792 12.216615170893029 -5 7 C-3.490500668459049 4.405548023914022 -2.1237751709209647 2.1237751709209434 0 0 Z " fill="#000000" transform="translate(420,35)"/>
<path d="M0 0 C7.452210889699018 4.444390831808448 11.765066791974391 10.559243696007641 14.27734375 18.78515625 C15.984760252125739 25.979856131371264 15.784465437388462 33.19373535846941 15.59375 40.546875 C14.603749999999991 40.546875 13.613749999999982 40.546875 12.59375 40.546875 C11.07805792699537 39.031182926995385 11.238631995857304 37.49797281860137 10.98046875 35.390625 C10.86638671875005 34.532109375000005 10.752304687499986 33.67359375000001 10.634765625 32.7890625 C10.403240873430263 30.993146747492375 10.179002133889753 29.196273119966364 9.962890625 27.3984375 C8.809782337889828 18.90450323210613 6.55146960004663 11.048327707013627 -0.40625 5.546875 C-3.710374293931295 3.74528846445687 -6.580481368090773 2.546875 -10.40625 2.546875 C-9.746250000000032 3.371875000000003 -9.08624999999995 4.196874999999999 -8.40625 5.046875 C-6.290369243723717 8.202135776903297 -6.118365190878421 10.687833071238892 -6.33203125 14.51171875 C-6.444866551732503 17.60578149750644 -5.914236096069317 20.498958423584078 -5.40625 23.546875 C-6.066249999999968 23.546875 -6.72625000000005 23.546875 -7.40625 23.546875 C-7.299257812499945 24.222343749999993 -7.1922656250000045 24.8978125 -7.08203125 25.59375 C-6.962148437499991 26.485781250000002 -6.842265624999982 27.377812500000005 -6.71875 28.296875 C-6.59113281249995 29.178593750000005 -6.463515625000014 30.06031250000001 -6.33203125 30.96875 C-6.423770198419106 34.15547136613702 -7.150751587941613 35.3323856499791 -9.40625 37.546875 C-12.59375 37.796875 -12.59375 37.796875 -15.40625 37.546875 C-15.241250000000036 37.216875 -15.241250000000036 37.216875 -14.40625 35.546875 C-13.840316883037076 31.89975046846095 -13.629270281697927 28.228813612937046 -13.40625 24.546875 C-13.365483398437505 23.891547851562507 -13.324716796875009 23.236220703125 -13.28271484375 22.56103515625 C-13.16684323871857 20.452171944677502 -13.093913870365554 18.345440329278716 -13.03125 16.234375 C-12.982265624999968 14.918242187499999 -12.93328125000005 13.602109374999998 -12.8828125 12.24609375 C-13.559944227003825 7.460692664383842 -15.156460677940913 6.017075900684546 -18.40625 2.546875 C-18.40625 1.8868750000000034 -18.40625 1.2268749999999997 -18.40625 0.546875 C-35.43930074086188 7.271898269854844 -35.43930074086188 7.271898269854844 -40.40625 15.546875 C-41.6015625 18.84375 -41.6015625 18.84375 -42.53125 22.296875 C-42.85867187500003 23.511171875000002 -43.186093750000055 24.725468750000005 -43.5234375 25.9765625 C-44.63586319187925 30.475487643264103 -45.60689673876493 34.982147166104994 -46.40625 39.546875 C-47.39625000000001 39.546875 -48.38625000000002 39.546875 -49.40625 39.546875 C-51.979689784079596 30.31276753947924 -52.18062166603579 21.443453278107953 -47.8203125 12.67578125 C-37.378424877523344 -3.0447401705794306 -16.61889980983358 -7.952054210081641 0 0 Z " fill="#000000" transform="translate(945.40625,41.453125)"/>
<path d="M0 0 C5.767246090074423 0.35309669939231014 9.926022661888283 1.732023741025877 14 6 C15.1875 9.0625 15.1875 9.0625 15 12 C13.1875 14.0625 13.1875 14.0625 11 16 C8.791816129532208 19.995761289417956 8.926268973951437 22.607463984346815 10 27 C10.329999999999927 27.659999999999997 10.660000000000082 28.319999999999993 11 29 C17.90219996170731 30.756923626616413 22.834178136566834 29.473152821807332 29 26 C31.266237257480725 24.232334939165057 33.34952898368192 22.396770909359446 35.40625 20.390625 C37 19 37 19 39 19 C39.21140624999998 18.434101562500004 39.422812499999964 17.868203125 39.640625 17.28515625 C41.491353417038226 14.17401796273758 43.84092943417613 12.57588396069896 46.75 10.4375 C47.77609374999997 9.673085937499998 48.802187499999945 8.908671874999996 49.859375 8.12109375 C56.00597969442538 3.969842072048486 60.61788519823813 1.8958923948669266 68 3 C71.73307879395747 4.0789245069241105 74.12733386134323 5.5669596184601176 76.16796875 8.91796875 C78.59113132899051 14.896513977640446 77.87682705843827 19.946088329793653 76 26 C75.67000000000007 26.659999999999997 75.33999999999992 27.319999999999993 75 28 C74.33999999999992 28 73.68000000000006 28 73 28 C73.02320312500001 27.047382812500004 73.04640625000002 26.094765625000008 73.0703125 25.11328125 C73.08835937499998 23.8590234375 73.10640624999996 22.604765625 73.125 21.3125 C73.14820312500001 20.071132812499997 73.17140625000002 18.829765625 73.1953125 17.55078125 C73.00829894188973 14.15087476355442 72.65693881859784 11.957251732530722 71 9 C65.95222886623992 7.317409622079971 60.63225295856205 6.912292165883443 55.63671875 8.9765625 C51.87665591763448 11.217477460422614 49.748502713157905 12.908503651210253 48 17 C48.66000000000008 17.990000000000002 48.66000000000008 17.990000000000002 52 23 C51.33999999999992 24.319999999999993 50.680000000000064 25.64 50 27 C49.174999999999955 26.00999999999999 49.174999999999955 26.00999999999999 45 21 C40.600712485578924 21.530129970262962 38.20151010772838 23.092669666570686 34.75 25.8125 C28.15457640050886 30.759067699618285 21.467784696742683 34.84023047741995 13 35 C8.747361443136242 33.44615129653053 6.382556480693665 31.820306081112363 4 28 C2.8428268298246167 22.416639453904168 3.7006702075441353 17.941162487417927 6.5625 13.0625 C6.800332031250036 12.707363281249997 6.800332031250036 12.707363281249997 8.00390625 10.91015625 C8.168261718750045 10.594980468750002 8.168261718750045 10.594980468750002 9 9 C8 6 8 6 6.15234375 4.83203125 C5.421445312500055 4.495585937499996 4.690546875000109 4.159140624999999 3.9375 3.8125 C3.2040234374999272 3.4683203124999977 2.470546875000082 3.1241406250000026 1.71484375 2.76953125 C1.1489453125000182 2.515585937499999 0.5830468750000364 2.2616406249999983 0 2 C0 1.3400000000000034 0 0.6799999999999997 0 0 Z " fill="#000000" transform="translate(1079,40)"/>
<path d="M0 0 C5.447998136536853 0.4358398509229424 8.76122851197033 1.514787887619967 13 5 C15.271603679235795 7.809615076949626 16.73017287364746 10.018810449627445 17.6875 13.5 C16.56086166139471 17.596866685837718 13.25133274379914 19.458417647258905 10 22 C5.2212001291484285 26.344363518956058 1.9409457395065601 30.37719955863507 1.5625 37 C1.703970372985168 41.327329056015074 3.3361781179471564 43.6702226474339 6 47 C18.096070427518725 45.43921671902983 24.796057773324037 37.257916868702935 32.9375 28.9375 C42.11691761577504 19.57346360149434 50.75858066700039 12.244210340176934 64.4375 11.625 C69.7211643926646 11.74838227290563 73.81993883675227 12.66578650743304 78 16 C80.96393421769085 19.316583614696583 82.22583353878372 22.63443763135311 82.4375 27.0625 C81.90358990738446 31.867690833540742 80.41976677893149 34.83298754794666 77.8125 38.8125 C74.79004594464664 40.79272851902468 71.56297726453681 40.707952683234694 68 41 C68 40.34 68 39.68000000000001 68 39 C69.11374999999998 38.608125 70.22749999999996 38.21625 71.375 37.8125 C73.97168561814033 36.679400821175165 74.84267021530854 36.23941488974779 76.4375 33.8125 C77.43316315635661 28.834184218217175 77.8127805817453 24.736394879183294 75.625 20.0625 C74 18 74 18 72 17 C63.07829174543713 16.170624730651532 56.075930283911475 16.252201740986777 49 22 C42.27014548818829 27.839081887749714 35.87217067551774 34.02656088513393 29.6875 40.4375 C23.462240678114767 46.67620480638169 17.32172790422578 51.9280463590933 8.1875 52.19921875 C3.5999346625922044 51.781422621057516 1.5175176294771973 49.4600156706464 -1.8125 46.5 C-4.706038570501278 42.839719347725634 -4.586172257947737 39.19535381085501 -4.34765625 34.67578125 C-3.3733994716985762 27.1772880686906 0.47448929056963607 22.759473997441248 6 18 C6.990000000000009 17.340000000000003 7.980000000000018 16.68 9 16 C9.875 14.125 9.875 14.125 10 12 C8.033132431220565 8.284805703416524 5.81367196304268 7.4301269861409835 2 6 C0.1875 4.375 0.1875 4.375 -1 3 C-0.6700000000000728 2.009999999999998 -0.33999999999991815 1.0200000000000031 0 0 Z " fill="#000000" transform="translate(1458,31)"/>
<path d="M0 0 C2 3.75 2 3.75 2 6 C4.639999999999986 6 7.279999999999973 6 10 6 C10.330000000000041 7.319999999999993 10.659999999999968 8.64 11 10 C8.029999999999973 10 5.059999999999945 10 2 10 C2 11.650000000000006 2 13.299999999999997 2 15 C1.009999999999991 15 0.01999999999998181 15 -1 15 C-1 13.349999999999994 -1 11.700000000000003 -1 10 C-3.9700000000000273 9.670000000000002 -6.940000000000055 9.340000000000003 -10 9 C-10 8.010000000000005 -10 7.019999999999996 -10 6 C-8.514999999999986 5.834999999999994 -8.514999999999986 5.834999999999994 -1 5 C-0.6699999999999591 3.3499999999999943 -0.34000000000003183 1.7000000000000028 0 0 Z " fill="#000000" transform="translate(744,86)"/>
<path d="M0 0 C2 1 2 1 4 4 C5.9453125 4.73046875 5.9453125 4.73046875 8.125 5.1875 C9.403750000000002 5.455624999999998 10.682500000000005 5.7237499999999955 12 6 C12 6.659999999999997 12 7.319999999999993 12 8 C8.94152151577805 8.543729508306114 6.112271954736514 9 3 9 C3 10.650000000000006 3 12.299999999999997 3 14 C2.009999999999991 14 1.0199999999999818 14 0 14 C0 12.349999999999994 0 10.700000000000003 0 9 C-2.3100000000000023 9 -4.6200000000000045 9 -7 9 C-7 7.680000000000007 -7 6.359999999999999 -7 5 C-5.019999999999982 5 -3.0400000000000205 5 -1 5 C-0.6700000000000159 3.3499999999999943 -0.339999999999975 1.7000000000000028 0 0 Z " fill="#000000" transform="translate(264,87)"/>
<path d="M0 0 C0.660000000000025 0 1.3199999999999932 0 2 0 C2.329999999999984 1.3199999999999932 2.660000000000025 2.6400000000000006 3 4 C5.639999999999986 4.329999999999998 8.279999999999973 4.659999999999997 11 5 C11 5.989999999999995 11 6.980000000000004 11 8 C8.043354807428727 9.478322596285636 5.2577026303591765 9.060327826488134 2 9 C2.329999999999984 10.650000000000006 2.660000000000025 12.299999999999997 3 14 C2.009999999999991 14.329999999999998 1.0199999999999818 14.659999999999997 0 15 C0 13.019999999999996 0 11.039999999999992 0 9 C-2.0182291666666856 9.09765625 -4.036458333333314 9.1953125 -6.0546875 9.29296875 C-6.696640624999986 9.1962890625 -7.338593749999973 9.099609375 -8 9 C-8.660000000000025 8.010000000000005 -9.319999999999993 7.019999999999996 -10 6 C-6.785487308314316 4.392743654157144 -3.5638746442172646 4.942518150899716 0 5 C0 3.3499999999999943 0 1.7000000000000028 0 0 Z " fill="#000000" transform="translate(364,87)"/>
<path d="M0 0 C0.660000000000025 0 1.3199999999999932 0 2 0 C2.329999999999984 1.3199999999999932 2.660000000000025 2.6400000000000006 3 4 C3.565898437499982 4.121171875000002 4.1317968750000205 4.242343750000003 4.71484375 4.3671875 C5.448320312500016 4.534765625000006 6.181796874999975 4.702343749999997 6.9375 4.875 C7.668398437500002 5.037421875000007 8.399296875000005 5.199843749999999 9.15234375 5.3671875 C11 6 11 6 12 8 C8.785487308314316 9.607256345842856 5.563874644217265 9.057481849100284 2 9 C2 10.980000000000004 2 12.960000000000008 2 15 C1.009999999999991 15 0.01999999999998181 15 -1 15 C-0.6700000000000159 13.019999999999996 -0.339999999999975 11.039999999999992 0 9 C-1.2787500000000023 9.020624999999995 -2.5575000000000045 9.041250000000005 -3.875 9.0625 C-7.75 9.125 -7.75 9.125 -10 8 C-10 7.340000000000003 -10 6.680000000000007 -10 6 C-7.029999999999973 5.340000000000003 -4.060000000000002 4.680000000000007 -1 4 C-0.6700000000000159 2.680000000000007 -0.339999999999975 1.3599999999999994 0 0 Z " fill="#000000" transform="translate(458,87)"/>
<path d="M0 0 C0.6599999999999682 0 1.32000000000005 0 2 0 C2.330000000000041 1.6500000000000057 2.659999999999968 3.299999999999997 3 5 C3.474375000000009 4.989687500000002 3.474375000000009 4.989687500000002 5.875 4.9375 C9 5 9 5 11 6 C10.669999999999959 6.989999999999995 10.340000000000032 7.980000000000004 10 9 C7.360000000000014 9 4.720000000000027 9 2 9 C2 10.650000000000006 2 12.299999999999997 2 14 C1.009999999999991 14 0.01999999999998181 14 -1 14 C-1 12.019999999999996 -1 10.039999999999992 -1 8 C-1.330000000000041 8.164999999999992 -1.330000000000041 8.164999999999992 -3 9 C-4.999600119960064 9.039992002399202 -7.000472422352118 9.043467990818428 -9 9 C-9.330000000000041 8.010000000000005 -9.659999999999968 7.019999999999996 -10 6 C-7.043354807428727 4.521677403714364 -4.2577026303591765 4.939672173511866 -1 5 C-0.6699999999999591 3.3499999999999943 -0.34000000000003183 1.7000000000000028 0 0 Z " fill="#000000" transform="translate(550,87)"/>
<path d="M0 0 C0.6599999999999682 0 1.32000000000005 0 2 0 C2.659999999999968 1.6500000000000057 3.32000000000005 3.299999999999997 4 5 C6.309999999999945 5 8.620000000000005 5 11 5 C11.330000000000041 5.989999999999995 11.659999999999968 6.980000000000004 12 8 C10.514999999999986 8.164999999999992 10.514999999999986 8.164999999999992 3 9 C3 10.650000000000006 3 12.299999999999997 3 14 C2.009999999999991 14 1.0199999999999818 14 0 14 C-0.3300000000000409 12.349999999999994 -0.6599999999999682 10.700000000000003 -1 9 C-1.9487500000000182 9.020624999999995 -2.8975000000000364 9.041250000000005 -3.875 9.0625 C-7 9 -7 9 -9 8 C-9 7.340000000000003 -9 6.680000000000007 -9 6 C-6.029999999999973 5.010000000000005 -3.0599999999999454 4.019999999999996 0 3 C0 2.010000000000005 0 1.019999999999996 0 0 Z " fill="#000000" transform="translate(834,87)"/>
<path d="M0 0 C0.3300000000000409 0.6187500000000057 0.6599999999999682 1.2374999999999972 1 1.875 C3.956085884721574 5.015841252516637 6.809208593791027 5.175582018450697 11 6 C10.669999999999959 6.989999999999995 10.340000000000032 7.980000000000004 10 9 C7.360000000000014 9 4.720000000000027 9 2 9 C2 10.650000000000006 2 12.299999999999997 2 14 C1.009999999999991 13.670000000000002 0.01999999999998181 13.340000000000003 -1 13 C-1 11.680000000000007 -1 10.36 -1 9 C-2.113749999999982 9.020624999999995 -3.2274999999999636 9.041250000000005 -4.375 9.0625 C-8 9 -8 9 -10 8 C-10 7.340000000000003 -10 6.680000000000007 -10 6 C-8.514999999999986 5.834999999999994 -8.514999999999986 5.834999999999994 -1 5 C-0.6699999999999591 3.3499999999999943 -0.34000000000003183 1.7000000000000028 0 0 Z " fill="#000000" transform="translate(928,87)"/>
<path d="M0 0 C2 2 2 2 2 5 C4.6400000000001 5 7.279999999999973 5 10 5 C10 6.319999999999993 10 7.640000000000001 10 9 C4.25 9.125 4.25 9.125 2 8 C2 9.980000000000004 2 11.960000000000008 2 14 C1.009999999999991 14 0.01999999999998181 14 -1 14 C-1 12.349999999999994 -1 10.700000000000003 -1 9 C-3.6400000000001 9 -6.279999999999973 9 -9 9 C-9.330000000000041 8.010000000000005 -9.659999999999968 7.019999999999996 -10 6 C-3.25 5 -3.25 5 -1 5 C-0.6700000000000728 3.3499999999999943 -0.33999999999991815 1.7000000000000028 0 0 Z " fill="#000000" transform="translate(1030,87)"/>
<path d="M0 0 C0.16499999999996362 0.6187500000000057 0.32999999999992724 1.2374999999999972 0.5 1.875 C2.90181375432212 5.277569485289732 6.0016213417966355 5.226120259702569 10 6 C10 6.659999999999997 10 7.319999999999993 10 8 C4.375 9.125 4.375 9.125 1 8 C1.3299999999999272 9.980000000000004 1.6600000000000819 11.960000000000008 2 14 C0.6800000000000637 13.670000000000002 -0.6400000000001 13.340000000000003 -2 13 C-2 12.010000000000005 -2 11.019999999999996 -2 10 C-3.113749999999982 9.896874999999994 -4.227499999999964 9.793750000000003 -5.375 9.6875 C-5.973124999999982 9.574062499999997 -5.973124999999982 9.574062499999997 -9 9 C-9.660000000000082 8.010000000000005 -10.319999999999936 7.019999999999996 -11 6 C-10.373515624999982 5.902031249999993 -9.747031249999964 5.804062500000001 -9.1015625 5.703125 C-8.692929687500055 5.628359375000002 -8.692929687500055 5.628359375000002 -6.625 5.25 C-5.812890624999909 5.110781250000002 -5.0007812500000455 4.9715625000000045 -4.1640625 4.828125 C-2 4 -2 4 -0.7109375 1.921875 C-0.4763281250000091 1.2876562499999977 -0.2417187500000182 0.6534374999999955 0 0 Z " fill="#000000" transform="translate(1123,87)"/>
<path d="M0 0 C0.6600000000000819 0.3299999999999983 1.3199999999999363 0.6599999999999966 2 1 C2.3299999999999272 1.9899999999999949 2.660000000000082 2.980000000000004 3 4 C4.84765625 4.73046875 4.84765625 4.73046875 7.0625 5.1875 C7.795976562500073 5.346054687500001 8.529453124999918 5.504609375000001 9.28515625 5.66796875 C9.851054687499982 5.777539062499997 10.416953124999964 5.887109374999994 11 6 C11 6.659999999999997 11 7.319999999999993 11 8 C8.3599999999999 8.329999999999998 5.720000000000027 8.659999999999997 3 9 C2.6700000000000728 10.650000000000006 2.339999999999918 12.299999999999997 2 14 C1.009999999999991 14 0.01999999999998181 14 -1 14 C-0.33999999999991815 12.349999999999994 0.31999999999993634 10.700000000000003 1 9 C-0.25812500000006366 9.061875 -1.5162499999999 9.123750000000001 -2.8125 9.1875 C-4.95703125 9.29296875 -4.95703125 9.29296875 -7 9 C-7.990000000000009 8.010000000000005 -8.980000000000018 7.019999999999996 -10 6 C-7.029999999999973 5.340000000000003 -4.059999999999945 4.680000000000007 -1 4 C-0.6700000000000728 2.680000000000007 -0.33999999999991815 1.3599999999999994 0 0 Z " fill="#000000" transform="translate(1204,87)"/>
<path d="M0 0 C0.11730468750010914 0.31710937500000114 0.11730468750010914 0.31710937500000114 0.7109375 1.921875 C2 4 2 4 4.1640625 4.828125 C4.976171875000091 4.967343749999998 5.7882812499999545 5.1065624999999955 6.625 5.25 C7.442265624999891 5.3995312499999955 8.259531250000009 5.549062500000005 9.1015625 5.703125 C9.728046875000018 5.801093750000007 10.354531250000036 5.899062499999999 11 6 C11 6.659999999999997 11 7.319999999999993 11 8 C7.785487308314259 9.607256345842856 4.5638746442173215 9.057481849100284 1 9 C1.3299999999999272 10.650000000000006 1.6600000000000819 12.299999999999997 2 14 C1.009999999999991 14 0.01999999999998181 14 -1 14 C-1 12.349999999999994 -1 10.700000000000003 -1 9 C-2.113749999999982 9.020624999999995 -3.2274999999999636 9.041250000000005 -4.375 9.0625 C-8 9 -8 9 -10 8 C-10 7.340000000000003 -10 6.680000000000007 -10 6 C-7.029999999999973 5.340000000000003 -4.059999999999945 4.680000000000007 -1 4 C-0.6700000000000728 2.680000000000007 -0.33999999999991815 1.3599999999999994 0 0 Z " fill="#000000" transform="translate(1504,87)"/>
<path d="M0 0 C0.6600000000000819 0 1.3199999999999363 0 2 0 C2.3299999999999272 1.3199999999999932 2.660000000000082 2.6400000000000006 3 4 C5.6400000000001 4 8.279999999999973 4 11 4 C11 5.319999999999993 11 6.640000000000001 11 8 C8.3599999999999 8 5.720000000000027 8 3 8 C3 9.650000000000006 3 11.299999999999997 3 13 C2.009999999999991 13 1.0199999999999818 13 0 13 C0 11.349999999999994 0 9.700000000000003 0 8 C-1.0931250000001 8.061875 -2.1862499999999727 8.123750000000001 -3.3125 8.1875 C-7 8 -7 8 -8.9375 6.5 C-9.112812500000018 6.252499999999998 -9.112812500000018 6.252499999999998 -10 5 C-6.785487308314259 3.392743654157144 -3.5638746442173215 3.9425181508997156 0 4 C0 2.680000000000007 0 1.3599999999999994 0 0 Z " fill="#000000" transform="translate(1310,88)"/>
<path d="M0 0 C0.8249999999999886 0.3300000000000125 0.8249999999999886 0.3300000000000125 5 2 C5 11.240000000000009 5 20.47999999999999 5 30 C4.009999999999991 30 3.019999999999982 30 2 30 C1.9749438476562773 29.197800292968736 1.9498876953124977 28.3956005859375 1.924072265625 27.569091796875 C1.8081795700022667 23.941729262451645 1.685422491297686 20.314630825307148 1.5625 16.6875 C1.523183593749991 15.424863281249998 1.4838671874999818 14.162226562499995 1.443359375 12.861328125 C1.4014648437499773 11.65283203125 1.3595703125000114 10.4443359375 1.31640625 9.19921875 C1.2797485351562727 8.083776855468756 1.2430908203124886 6.968334960937511 1.205322265625 5.819091796875 C1 3 1 3 0 0 Z " fill="#000000" transform="translate(256,130)"/>
<path d="M0 0 C4 3 4 3 4.4541015625 5.910888671875 C4.433154296874989 7.068225097656239 4.412207031249977 8.225561523437506 4.390625 9.41796875 C4.377734374999989 10.671582031250011 4.364843749999977 11.925195312499994 4.3515625 13.216796875 C4.318046874999993 14.527128906249999 4.284531249999986 15.837460937499998 4.25 17.1875 C4.2299330683609355 18.52276010446667 4.211682618223506 19.85804883151019 4.1953125 21.193359375 C4.148098029445691 24.462961460885055 4.0822518437547615 27.73112191723837 4 31 C2.680000000000007 30.670000000000016 1.3600000000000136 30.340000000000003 0 30 C0 20.099999999999994 0 10.199999999999989 0 0 Z " fill="#000000" transform="translate(459,130)"/>
<path d="M0 0 C1.3199999999999932 0 2.6399999999999864 0 4 0 C4.329999999999984 9.900000000000006 4.660000000000025 19.80000000000001 5 30 C4.009999999999991 30.329999999999984 3.019999999999982 30.659999999999997 2 31 C0.11368456998195597 29.113684569981956 0.7573470772811675 25.857993067170725 0.68359375 23.33984375 C0.6628126525878884 22.675377349853505 0.6420315551757767 22.01091094970704 0.6206207275390625 21.326309204101563 C0.5550634187013657 19.19681456517793 0.49621214837588923 17.067193316802474 0.4375 14.9375 C0.39432061031885723 13.49673152558384 0.35070651463712466 12.055976008303901 0.306640625 10.615234375 C0.19937607136705537 7.07695959699555 0.09812629041016407 3.538541308521502 0 0 Z " fill="#000000" transform="translate(353,131)"/>
<path d="M0 0 C0.3300000000000409 0.16499999999999204 0.3300000000000409 0.16499999999999204 2 1 C2.330000000000041 10.569999999999993 2.659999999999968 20.139999999999986 3 30 C2.009999999999991 30 1.0199999999999818 30 0 30 C0 20.099999999999994 0 10.199999999999989 0 0 Z " fill="#000000" transform="translate(738,131)"/>
<path d="M0 0 C1.9800000000000182 0 3.9600000000000364 0 6 0 C6 0.3300000000000125 6 0.6599999999999966 6 1 C4.019999999999982 1 2.0399999999999636 1 0 1 C0 0.6699999999999875 0 0.3400000000000034 0 0 Z " fill="#000000" transform="translate(1018,135)"/>
<path d="M0 0 C0.6600000000000819 0 1.3199999999999363 0 2 0 C2.9729915594100476 4.8572964461890535 3.120388053810075 9.450062498925234 3.0625 14.375 C3.057988281249891 15.111054687500001 3.053476562500009 15.847109375000002 3.048828125 16.60546875 C3.0371514183025283 18.40368158141851 3.019220109531261 20.201851974962267 3 22 C3.990000000000009 22.329999999999984 4.980000000000018 22.659999999999997 6 23 C4.349999999999909 23 2.7000000000000455 23 1 23 C-0.21160485842256094 19.365185424732488 -0.39411879892350044 15.855063258861179 -0.625 12.0625 C-0.6765625000000455 11.346425781249991 -0.728125000000091 10.63035156250001 -0.78125 9.892578125 C-1.0004624439020517 6.414192434260997 -1.1619825469110765 3.32118892139502 0 0 Z " fill="#000000" transform="translate(1305,138)"/>
<path d="M0 0 C0.49500000000000455 0.3300000000000125 0.49500000000000455 0.3300000000000125 3 2 C3.2566009434040097 5.079211320848032 3.394315035067848 7.211369929864304 2 10 C1.3400000000000318 10 0.67999999999995 10 0 10 C0 6.699999999999989 0 3.4000000000000057 0 0 Z " fill="#000000" transform="translate(553,142)"/>
<path d="M0 0 C0.49500000000000455 0.3300000000000125 0.49500000000000455 0.3300000000000125 3 2 C3.248779296875 3.87939453125 3.248779296875 3.87939453125 3.07421875 6.1328125 C3.0194335937500227 6.9384765625 2.9646484375000455 7.744140625 2.908203125 8.57421875 C2.835371093750041 9.415976562499992 2.762539062499968 10.257734375000013 2.6875 11.125 C2.6262695312500455 11.974492187500005 2.5650390624999773 12.823984375000009 2.501953125 13.69921875 C2.3484860876217226 15.80053664641099 2.176022775233946 17.90045123516083 2 20 C1.009999999999991 19.670000000000016 0.01999999999998181 19.340000000000003 -1 19 C-1.0268398732856667 16.02077406528818 -1.0467603702888937 13.041787052465708 -1.0625 10.0625 C-1.070878906249959 9.212363281249992 -1.0792578125000318 8.362226562500013 -1.087890625 7.486328125 C-1.0911132812500455 6.677441406250011 -1.0943359374999773 5.868554687499994 -1.09765625 5.03515625 C-1.1028930664062955 4.286291503906256 -1.1081298828124773 3.5374267578125114 -1.113525390625 2.765869140625 C-1 1 -1 1 0 0 Z " fill="#000000" transform="translate(1006,142)"/>
<path d="M0 0 C0.9900000000000091 0.3300000000000125 1.9800000000000182 0.6599999999999966 3 1 C3 3.6399999999999864 3 6.280000000000001 3 9 C2.6700000000000728 9.164999999999992 2.6700000000000728 9.164999999999992 1 10 C0.6700000000000728 6.699999999999989 0.33999999999991815 3.4000000000000057 0 0 Z " fill="#000000" transform="translate(1038,142)"/>
<path d="M0 0 C0.9900000000000091 0.3300000000000125 1.9800000000000182 0.6599999999999966 3 1 C3.5574342102327137 2.9674148596448617 4.103026607787342 4.941054008140156 4.52734375 6.94140625 C5 9 5 9 6.125 11.6875 C7.101632195826369 14.268599374684129 7.156385682997552 16.263250547540935 7 19 C3.8054391949110595 16.36918521933859 2.709147986066 13.310951210666758 1.25 9.5 C0.8014062499999 8.355312499999997 0.3528125000000273 7.210624999999993 -0.109375 6.03125 C-1 3 -1 3 0 0 Z " fill="#000000" transform="translate(1390,142)"/>
<path d="M0 0 C1.859375 0.63671875 1.859375 0.63671875 4 2 C5.265625 4.64453125 5.265625 4.64453125 6.25 7.8125 C6.5851562499999545 8.850195312500006 6.920312499999909 9.887890625000011 7.265625 10.95703125 C7.947407442844224 13.782076584977062 8.149482204202286 16.11179026880447 8 19 C4.60457200965584 16.301580688025666 3.6946799988775183 12.951217894638319 2.3125 8.9375 C2.087558593749918 8.300058593750009 1.8626171875000637 7.66261718749999 1.630859375 7.005859375 C0 2.3016479863221946 0 2.3016479863221946 0 0 Z " fill="#000000" transform="translate(1489,142)"/>
<path d="M0 0 C3.1685370972228952 -0.35205967746921374 4.592676749159978 -0.2828633686389139 7.25 1.5625 C9.571002923960407 4.795325501230565 10 7.034872428469441 10 11 C8.0625 13.4375 8.0625 13.4375 6 15 C6.034804687500014 14.312929687500002 6.069609375000027 13.625859375000005 6.10546875 12.91796875 C6.119003906249986 12.467441406250003 6.119003906249986 12.467441406250003 6.1875 10.1875 C6.222304687500014 9.294179687499991 6.257109375000027 8.40085937500001 6.29296875 7.48046875 C6 5 6 5 4.67578125 3.30078125 C3.1687029066230252 2.1309512072388372 1.5874044406903067 1.0582696271268617 0 0 Z " fill="#000000" transform="translate(265,143)"/>
<path d="M0 0 C0.9900000000000091 0 1.9800000000000182 0 3 0 C3 5.939999999999998 3 11.879999999999995 3 18 C2.009999999999991 18 1.0199999999999818 18 0 18 C0 12.060000000000002 0 6.1200000000000045 0 0 Z " fill="#000000" transform="translate(820,143)"/>
<path d="M0 0 C0.8250000000000455 0.3300000000000125 0.8250000000000455 0.3300000000000125 5 2 C5 7.280000000000001 5 12.560000000000002 5 18 C4.009999999999991 18 3.019999999999982 18 2 18 C1.9394140624999636 16.868203125000008 1.878828125000041 15.736406249999987 1.81640625 14.5703125 C1.7320008349784075 13.08852854739871 1.6473528314008945 11.60675839909041 1.5625 10.125 C1.5428417968749955 9.751816406249986 1.5428417968749955 9.751816406249986 1.443359375 7.86328125 C1.11328125 2.2265625 1.11328125 2.2265625 0 0 Z " fill="#000000" transform="translate(830,143)"/>
<path d="M0 0 C1.9800000000000182 0 3.9600000000000364 0 6 0 C7.325943591049963 5.966746159724806 7.088458696845237 11.9258361499611 7 18 C6.009999999999991 18 5.019999999999982 18 4 18 C4 12.719999999999999 4 7.439999999999998 4 2 C2.67999999999995 1.3400000000000034 1.3600000000000136 0.6800000000000068 0 0 Z " fill="#000000" transform="translate(841,143)"/>
<path d="M0 0 C0.9900000000000091 0 1.9800000000000182 0 3 0 C2.9883984374999955 0.7966406250000091 2.976796874999991 1.5932812499999898 2.96484375 2.4140625 C2.8752196836555868 12.938488576449913 2.8752196836555868 12.938488576449913 4 18 C2.67999999999995 18.329999999999984 1.3600000000000136 18.659999999999997 0 19 C0 12.72999999999999 0 6.460000000000008 0 0 Z " fill="#000000" transform="translate(921,143)"/>
<path d="M0 0 C0.6599999999999682 0.3300000000000125 0.6599999999999682 0.3300000000000125 4 2 C4 7.610000000000014 4 13.219999999999999 4 19 C3.009999999999991 18.670000000000016 2.019999999999982 18.340000000000003 1 18 C0.6699999999999591 12.060000000000002 0.34000000000003183 6.1200000000000045 0 0 Z " fill="#000000" transform="translate(932,143)"/>
<path d="M0 0 C0.6599999999999682 0.3300000000000125 0.6599999999999682 0.3300000000000125 4 2 C4.330000000000041 7.610000000000014 4.659999999999968 13.219999999999999 5 19 C3.67999999999995 18.670000000000016 2.3600000000000136 18.340000000000003 1 18 C1.0116015625000045 16.868203125000008 1.023203125000009 15.736406249999987 1.03515625 14.5703125 C1.0445345359986504 13.088543312205076 1.0536346953675775 11.606772345713239 1.0625 10.125 C1.070878906249959 9.378632812500001 1.0792578125000318 8.632265625000002 1.087890625 7.86328125 C1.11328125 2.2265625 1.11328125 2.2265625 0 0 Z " fill="#000000" transform="translate(1016,143)"/>
<path d="M0 0 C1.3199999999999363 0.3300000000000125 2.6400000000001 0.6599999999999966 4 1 C4 9.909999999999997 4 18.819999999999993 4 28 C2.6800000000000637 28 1.3599999999999 28 0 28 C0 18.75999999999999 0 9.52000000000001 0 0 Z " fill="#000000" transform="translate(1111,143)"/>
<path d="M0 0 C0.6600000000000819 0 1.3199999999999363 0 2 0 C3.004413397933149 2.28982340124071 4.0036761191829555 4.581659895957273 5 6.875 C5.286171875000036 7.525976562500006 5.572343750000073 8.176953125000011 5.8671875 8.84765625 C8 13.7734375 8 13.7734375 8 16 C7.009999999999991 16 6.019999999999982 16 5 16 C4.734453125000073 15.324531250000007 4.468906249999918 14.649062500000014 4.1953125 13.953125 C3.8421093750000637 13.061093749999998 3.4889062499999 12.169062499999995 3.125 11.25 C2.776953125000091 10.368281249999995 2.4289062499999545 9.486562499999991 2.0703125 8.578125 C1 6 1 6 -0.1953125 3.796875 C-0.46085937499992724 3.2039062499999886 -0.7264062500000819 2.6109375000000057 -1 2 C-0.6700000000000728 1.3400000000000034 -0.33999999999991815 0.6800000000000068 0 0 Z " fill="#000000" transform="translate(1402,143)"/>
<path d="M0 0 C0.6599999999999682 0.3300000000000125 1.32000000000005 0.6599999999999966 2 1 C2.3893203349016403 2.989859489497462 2.7188793621198784 4.991995443713108 3 7 C3.330000000000041 7.990000000000009 3.659999999999968 8.97999999999999 4 10 C3.340000000000032 10 2.67999999999995 10 2 10 C-0.17364926398545322 7.182306509648527 -1.086770211537555 5.780931903837484 -0.6875 2.1875 C-0.46062500000005 1.4656249999999886 -0.23374999999998636 0.7437500000000057 0 0 Z " fill="#000000" transform="translate(543,144)"/>
<path d="M0 0 C0.9105853143978493 3.0732254360929687 1.088861844267285 5.80097360637663 1 9 C-1 7 -1 7 -1.1875 3.9375 C-1 1 -1 1 0 0 Z " fill="#000000" transform="translate(1030,144)"/>
<path d="M0 0 C2.9375 0.375 2.9375 0.375 6 1 C7.557749359078798 4.1154987181574825 7.564806219211505 7.604438801169351 7 11 C5.484375 12.75390625 5.484375 12.75390625 4 14 C4.011601562499891 13.396718749999991 4.023203125000009 12.79343750000001 4.03515625 12.171875 C4.044179687499991 11.372656250000006 4.053203124999982 10.573437500000011 4.0625 9.75 C4.074101562499891 8.961093750000003 4.085703125000009 8.172187500000007 4.09765625 7.359375 C4.001537606444799 5.0371485717076325 3.8401269511371083 3.1699278966514726 3 1 C2.009999999999991 0.6699999999999875 1.0199999999999818 0.3400000000000034 0 0 Z " fill="#000000" transform="translate(1121,144)"/>
<path d="M0 0 C0.3299999999999841 0 0.660000000000025 0 1 0 C1.024492187500016 0.42152343750001364 1.024492187500016 0.42152343750001364 1.1484375 2.5546875 C1.2232031249999977 3.650390625 1.2979687499999955 4.74609375 1.375 5.875 C1.4446093750000273 6.965546875000001 1.5142187499999977 8.056093750000002 1.5859375 9.1796875 C2 12 2 12 4 14 C5.317473239096614 14.697485832462917 6.649141932604266 15.369599568548665 8 16 C4.6875 15.875 4.6875 15.875 1 15 C-1.6571982556681064 11.512427289435635 -2.041844860640083 9.627672909601245 -1.75 5.25 C-1 2 -1 2 0 0 Z " fill="#000000" transform="translate(447,145)"/>
<path d="M0 0 C0.4331250000000182 0.38156250000000114 0.4331250000000182 0.38156250000000114 2.625 2.3125 C4.882993802258852 4.227235837069799 6.543729170135521 5.246216982702862 9.3125 6.5 C12 8 12 8 12.875 10.6875 C12.89562500000011 11.069062500000001 12.89562500000011 11.069062500000001 13 13 C12.009999999999991 13 11.019999999999982 13 10 13 C9.75378906249989 12.381249999999994 9.507578125000009 11.762499999999989 9.25390625 11.125 C7.418299921328526 8.014190520880817 5.023609295977167 7.4399430059654605 1.77734375 6.125 C0 5 0 5 -0.80859375 2.9375 C-0.8717578124999363 2.298124999999999 -0.9349218750001 1.6587499999999977 -1 1 C-0.6700000000000728 0.6699999999999875 -0.33999999999991815 0.3400000000000034 0 0 Z " fill="#000000" transform="translate(1206,145)"/>
<path d="M0 0 C0.660000000000025 0 1.3199999999999932 0 2 0 C3.76171875 1.86328125 3.76171875 1.86328125 5.6875 4.3125 C6.330742187499993 5.113007812500001 6.973984374999986 5.913515625000002 7.63671875 6.73828125 C8.086601562499993 7.484648437499999 8.536484374999986 8.231015624999998 9 9 C8.670000000000016 9.990000000000009 8.339999999999975 10.97999999999999 8 12 C6.849060753383526 10.566584802516843 5.704419651128944 9.128110907963475 4.5625 7.6875 C3.9244140624999773 6.886992187499999 3.2863281250000114 6.086484374999998 2.62890625 5.26171875 C1 3 1 3 0 0 Z " fill="#000000" transform="translate(359,150)"/>
<path d="M0 0 C0.32999999999992724 0.16499999999999204 0.32999999999992724 0.16499999999999204 2 1 C4.5290761564665445 1.1952117101903923 7.055607924997275 1.3175443738216757 9.58984375 1.42578125 C12 2 12 2 13.8671875 3.87109375 C15 6 15 6 14.1875 8.75 C13.795624999999973 9.492500000000007 13.403749999999945 10.235000000000014 13 11 C12.670000000000073 11 12.339999999999918 11 12 11 C12 9.02000000000001 12 7.039999999999992 12 5 C11.650664062500027 5.005800781250002 11.650664062500027 5.005800781250002 9.8828125 5.03515625 C8.972734375000073 5.044179687499991 8.062656249999918 5.05320312500001 7.125 5.0625 C6.672539062499936 5.068300781250002 6.672539062499936 5.068300781250002 4.3828125 5.09765625 C2 5 2 5 0 4 C0 2.680000000000007 0 1.3600000000000136 0 0 Z " fill="#000000" transform="translate(1031,157)"/>
<path d="M0 0 C1.8966652645102613 0.08772454971418142 3.792389925034854 0.19591301106970604 5.6875 0.3125 C6.215371093750036 0.34150390625001137 6.215371093750036 0.34150390625001137 8.88671875 0.48828125 C12.230099644445659 1.0378206441937152 14.235262615953161 2.086740177644799 17 4 C16.66999999999996 5.650000000000006 16.340000000000032 7.300000000000011 16 9 C15.009999999999991 9 14.019999999999982 9 13 9 C13 7.680000000000007 13 6.360000000000014 13 5 C12.312929687499945 4.974218750000006 11.625859375000005 4.948437500000011 10.91796875 4.921875 C10.01691406249995 4.8651562500000125 9.115859375000014 4.808437499999997 8.1875 4.75 C7.7408398437499955 4.726796874999991 7.7408398437499955 4.726796874999991 5.48046875 4.609375 C3 4 3 4 1.17578125 1.953125 C0.78777343750005 1.30859375 0.39976562499998636 0.6640625 0 0 Z " fill="#000000" transform="translate(543,158)"/>
<path d="M0 0 C0.3300000000000409 1.3199999999999932 0.6599999999999682 2.6399999999999864 1 4 C0.009999999999990905 4 -0.9800000000000182 4 -2 4 C-1.3400000000000318 2.680000000000007 -0.67999999999995 1.3600000000000136 0 0 Z " fill="#000000" transform="translate(543,163)"/>
<path d="M0 0 C0.553476395408552 2.0755364827817004 1 3.8436596381261836 1 6 C0.009999999999990905 5.6699999999999875 -0.9800000000000182 5.340000000000003 -2 5 C-1.125 1.125 -1.125 1.125 0 0 Z " fill="#000000" transform="translate(1029,163)"/>
<path d="M0 0 C1.3199999999999363 0.3300000000000125 2.6400000000001 0.6599999999999966 4 1 C2.6800000000000637 1 1.3599999999999 1 0 1 C0 0.6699999999999875 0 0.3400000000000034 0 0 Z " fill="#000000" transform="translate(1487,168)"/>
</svg>
